<svg width="20" height="20" viewBox="0 0 20 20" fill="none" xmlns="http://www.w3.org/2000/svg">
<path fill-rule="evenodd" clip-rule="evenodd" d="M13 3.5V4.4H7V3.5C7 3.23478 6.89464 2.98043 6.70711 2.79289C6.51957 2.60536 6.26522 2.5 6 2.5C5.73478 2.5 5.48043 2.60536 5.29289 2.79289C5.10536 2.98043 5 3.23478 5 3.5V4.57C4.41493 4.77701 3.90842 5.16032 3.55024 5.66715C3.19206 6.17397 2.99982 6.77938 3 7.4V14.5C3 15.2956 3.31607 16.0587 3.87868 16.6213C4.44129 17.1839 5.20435 17.5 6 17.5H14C14.7956 17.5 15.5587 17.1839 16.1213 16.6213C16.6839 16.0587 17 15.2956 17 14.5V7.4C17.0002 6.77938 16.8079 6.17397 16.4498 5.66715C16.0916 5.16032 15.5851 4.77701 15 4.57V3.5C15 3.23478 14.8946 2.98043 14.7071 2.79289C14.5196 2.60536 14.2652 2.5 14 2.5C13.7348 2.5 13.4804 2.60536 13.2929 2.79289C13.1054 2.98043 13 3.23478 13 3.5ZM5 13.6V9H15V13.6C15 14.1304 14.7893 14.6391 14.4142 15.0142C14.0391 15.3893 13.5304 15.6 13 15.6H7C6.46957 15.6 5.96086 15.3893 5.58579 15.0142C5.21071 14.6391 5 14.1304 5 13.6Z" fill="#999999"/>
</svg>
