<svg width="12" height="13" viewBox="0 0 12 13" fill="none" xmlns="http://www.w3.org/2000/svg">
<path d="M8.53728 7.76L9.04908 10.106C9.08508 10.4072 9.00768 10.6436 8.81748 10.814C8.55708 11.048 8.24268 11.0252 8.04108 10.94C7.91568 10.8716 7.23528 10.4522 5.99868 9.683C4.76208 10.4522 4.08108 10.8716 3.95628 10.9406C3.75468 11.0246 3.44028 11.0486 3.17928 10.814C2.98908 10.6436 2.91228 10.4072 2.94768 10.106L3.45948 7.76L3.45708 7.7582L3.45768 7.7564C2.36748 6.7658 1.77408 6.2204 1.67868 6.122C1.53048 5.9618 1.43688 5.6504 1.54968 5.3366C1.66248 5.0228 1.95228 4.889 2.12208 4.8686C2.23608 4.856 3.00528 4.781 4.43088 4.6448H4.42788C5.00688 3.23 5.32188 2.4722 5.37348 2.3702C5.45028 2.2172 5.69748 2 5.99868 2C6.29988 2 6.51708 2.1992 6.60948 2.3438C6.66948 2.4626 6.98988 3.23 7.56948 4.6448C8.99448 4.781 9.76428 4.856 9.87768 4.8692C10.0475 4.889 10.3373 5.0228 10.4501 5.3372C10.5629 5.6504 10.4693 5.9612 10.3211 6.122C10.2251 6.221 9.63108 6.7664 8.53968 7.7582L8.53728 7.76Z" fill="#333333"/>
</svg>
