<svg width="20" height="20" viewBox="0 0 20 20" fill="none" xmlns="http://www.w3.org/2000/svg">
<path fill-rule="evenodd" clip-rule="evenodd" d="M10 9.00002C10.394 9.00015 10.7842 8.92267 11.1483 8.77201C11.5124 8.62134 11.8433 8.40043 12.122 8.1219C12.4007 7.84338 12.6218 7.51268 12.7727 7.14869C12.9236 6.7847 13.0014 6.39456 13.0015 6.00052C13.0016 5.60649 12.9242 5.21629 12.7735 4.85221C12.6228 4.48812 12.4019 4.15727 12.1234 3.87856C11.8449 3.59984 11.5142 3.37872 11.1502 3.22781C10.7862 3.07689 10.396 2.99915 10.002 2.99902C9.20622 2.99876 8.44292 3.31463 7.88003 3.87714C7.31714 4.43966 7.00077 5.20274 7.0005 5.99852C7.00024 6.79431 7.3161 7.5576 7.87862 8.12049C8.44113 8.68338 9.20422 8.99976 10 9.00002ZM3.003 15.025C2.996 11.512 7.483 10 10 10C12.558 10 17.007 11.563 16.995 14.993C16.995 15.051 16.997 15.097 16.998 15.139L17 15.248C17.004 16.308 16.147 16.994 15.238 16.997C14.636 17.001 10.006 16.999 10.006 16.999C10.006 16.999 6.136 17.008 4.8 16.998C3.465 16.988 3.004 15.868 3 15.306L3.002 15.118L3.003 15.025Z" fill="#999999"/>
</svg>
