<svg width="40" height="40" viewBox="0 0 40 40" fill="none" xmlns="http://www.w3.org/2000/svg">
<path d="M20 36C24.2435 36 28.3131 34.3143 31.3137 31.3137C34.3143 28.3131 36 24.2435 36 20C36 15.7565 34.3143 11.6869 31.3137 8.68629C28.3131 5.68571 24.2435 4 20 4C15.7565 4 11.6869 5.68571 8.68629 8.68629C5.68571 11.6869 4 15.7565 4 20C4 24.2435 5.68571 28.3131 8.68629 31.3137C11.6869 34.3143 15.7565 36 20 36ZM24.446 11.046C23.286 10.994 22.938 10.982 20 10.982C17.064 10.982 16.716 10.994 15.556 11.046C12.572 11.182 11.182 12.598 11.046 15.556C10.994 16.716 10.982 17.062 10.982 20C10.982 22.938 10.994 23.286 11.046 24.446C11.182 27.398 12.566 28.818 15.556 28.954C16.716 29.008 17.064 29.018 20 29.018C22.94 29.018 23.286 29.008 24.446 28.954C27.43 28.82 28.818 27.402 28.956 24.446C29.008 23.286 29.018 22.938 29.018 20C29.018 17.064 29.008 16.716 28.956 15.556C28.82 12.596 27.428 11.182 24.446 11.046ZM15.466 9.066C16.638 9.012 17.012 9 20 9C22.988 9 23.362 9.012 24.536 9.066C28.536 9.25 30.756 11.474 30.936 15.466C30.988 16.638 31 17.012 31 20C31 22.988 30.988 23.362 30.934 24.536C30.754 28.536 28.528 30.75 24.536 30.934C23.362 30.988 22.988 31 20 31C17.012 31 16.64 30.988 15.464 30.934C11.466 30.75 9.25 28.53 9.066 24.534C9.014 23.362 9 22.988 9 20C9 17.012 9.014 16.64 9.068 15.464C9.25 11.464 11.47 9.25 15.466 9.066ZM14.352 20C14.352 19.2582 14.4981 18.5236 14.782 17.8382C15.0659 17.1529 15.482 16.5301 16.0066 16.0056C16.5311 15.481 17.1539 15.0649 17.8392 14.781C18.5246 14.4971 19.2592 14.351 20.001 14.351C20.7428 14.351 21.4774 14.4971 22.1628 14.781C22.8481 15.0649 23.4709 15.481 23.9954 16.0056C24.52 16.5301 24.9361 17.1529 25.22 17.8382C25.5039 18.5236 25.65 19.2582 25.65 20C25.65 21.4982 25.0548 22.9351 23.9954 23.9944C22.9361 25.0538 21.4992 25.649 20.001 25.649C18.5028 25.649 17.0659 25.0538 16.0066 23.9944C14.9472 22.9351 14.352 21.4982 14.352 20ZM16.332 20C16.332 20.9725 16.7183 21.9053 17.406 22.593C18.0937 23.2807 19.0265 23.667 19.999 23.667C20.9715 23.667 21.9043 23.2807 22.592 22.593C23.2797 21.9053 23.666 20.9725 23.666 20C23.666 19.0277 23.2798 18.0953 22.5923 17.4077C21.9047 16.7202 20.9723 16.334 20 16.334C19.0277 16.334 18.0953 16.7202 17.4077 17.4077C16.7202 18.0953 16.332 19.0277 16.332 20ZM24.552 14.128C24.552 13.7779 24.6911 13.4422 24.9386 13.1946C25.1862 12.9471 25.5219 12.808 25.872 12.808C26.2221 12.808 26.5578 12.9471 26.8054 13.1946C27.0529 13.4422 27.192 13.7779 27.192 14.128C27.192 14.4781 27.0529 14.8138 26.8054 15.0614C26.5578 15.3089 26.2221 15.448 25.872 15.448C25.5219 15.448 25.1862 15.3089 24.9386 15.0614C24.6911 14.8138 24.552 14.4781 24.552 14.128Z" fill="#C2C2C2"/>
</svg>
