<svg width="12" height="12" viewBox="0 0 12 12" fill="none" xmlns="http://www.w3.org/2000/svg">
<path d="M5.99981 11.6998C5.62181 11.6998 5.26601 11.5528 4.99781 11.2852L4.74581 11.032C4.56015 10.8453 4.33928 10.6973 4.09601 10.5966C3.85275 10.4959 3.59191 10.4444 3.32861 10.4452H2.97101C2.59561 10.4447 2.23572 10.2954 1.97027 10.0299C1.70483 9.7645 1.55549 9.40461 1.55501 9.02921V8.67101C1.55501 8.13581 1.34621 7.63301 0.967611 7.25441L0.714411 7.00121C0.582505 6.87001 0.477939 6.71394 0.406772 6.54205C0.335604 6.37016 0.299249 6.18585 0.299811 5.99981C0.299811 5.62181 0.446811 5.26601 0.714411 4.99841L0.967611 4.74521C1.34561 4.36721 1.55441 3.86321 1.55441 3.32861V2.97101C1.55489 2.59561 1.70423 2.23572 1.96967 1.97027C2.23512 1.70482 2.59501 1.55548 2.97041 1.55501H3.32861C3.86381 1.55501 4.36661 1.34621 4.74521 0.967008L4.99841 0.715008C5.1296 0.583047 5.28565 0.478406 5.45754 0.407139C5.62942 0.335871 5.81374 0.299391 5.99981 0.299808C6.37781 0.299808 6.73301 0.447408 7.00061 0.714408L7.25381 0.967608C7.63181 1.34561 8.13521 1.55441 8.67041 1.55441H9.02861C9.40401 1.55488 9.7639 1.70422 10.0293 1.96967C10.2948 2.23512 10.4441 2.59501 10.4446 2.97041V3.32861C10.4446 3.86381 10.6528 4.36661 11.0314 4.74521L11.2846 4.99841C11.5522 5.26601 11.6992 5.62121 11.6992 6.00041C11.6992 6.37841 11.5522 6.73361 11.2846 7.00121L11.0314 7.25441C10.8448 7.43998 10.6968 7.66074 10.5961 7.90391C10.4953 8.14707 10.4439 8.40781 10.4446 8.67101V9.02861C10.4441 9.40401 10.2948 9.7639 10.0293 10.0293C9.7639 10.2948 9.40401 10.4441 9.02861 10.4446H8.67041C8.13521 10.4446 7.63241 10.6534 7.25381 11.032L7.00061 11.2852C6.86946 11.417 6.71349 11.5215 6.54171 11.5927C6.36993 11.6638 6.18575 11.7003 5.99981 11.6998Z" fill="#1A4568"/>
<path d="M5.67969 3.69623C5.71059 3.64184 5.75536 3.5966 5.80943 3.56514C5.86349 3.53367 5.92494 3.51709 5.98749 3.51709C6.05005 3.51709 6.11149 3.53367 6.16556 3.56514C6.21963 3.5966 6.26439 3.64184 6.29529 3.69623L6.83349 4.65143C6.88389 4.74083 6.97089 4.80383 7.07169 4.82423L8.14569 5.04083C8.20705 5.05332 8.26399 5.08186 8.31071 5.12353C8.35744 5.1652 8.39228 5.21852 8.41167 5.27805C8.43107 5.33758 8.43433 5.40119 8.42112 5.46239C8.40792 5.5236 8.37871 5.5802 8.33649 5.62643L7.59429 6.43343C7.56005 6.47083 7.53424 6.51515 7.51861 6.56339C7.50297 6.61162 7.49789 6.66266 7.50369 6.71303L7.62969 7.80203C7.63666 7.86419 7.62702 7.92709 7.60178 7.98432C7.57653 8.04155 7.53657 8.09106 7.48596 8.12783C7.43536 8.16459 7.37591 8.18729 7.31368 8.19362C7.25145 8.19994 7.18866 8.18967 7.13169 8.16383L6.13449 7.70783C6.08835 7.68677 6.03822 7.67587 5.98749 7.67587C5.93677 7.67587 5.88664 7.68677 5.84049 7.70783L4.84389 8.16383C4.78693 8.18967 4.72413 8.19994 4.6619 8.19362C4.59967 8.18729 4.54023 8.16459 4.48963 8.12783C4.43902 8.09106 4.39906 8.04155 4.37381 7.98432C4.34857 7.92709 4.33893 7.86419 4.34589 7.80203L4.47189 6.71303C4.47766 6.66261 4.4725 6.61154 4.45676 6.56329C4.44102 6.51505 4.41508 6.47076 4.38069 6.43343L3.63849 5.62643C3.59627 5.5802 3.56707 5.5236 3.55386 5.46239C3.54066 5.40119 3.54392 5.33758 3.56331 5.27805C3.58271 5.21852 3.61755 5.1652 3.66427 5.12353C3.711 5.08186 3.76794 5.05332 3.82929 5.04083L4.90329 4.82423C4.95307 4.8142 5.0001 4.79357 5.0412 4.76376C5.0823 4.73394 5.11651 4.69563 5.14149 4.65143L5.67969 3.69623Z" fill="white"/>
</svg>
