<svg width="26" height="25" viewBox="0 0 26 25" fill="none" xmlns="http://www.w3.org/2000/svg">
<g clip-path="url(#clip0_365_19175)">
<g clip-path="url(#clip1_365_19175)">
<path fill-rule="evenodd" clip-rule="evenodd" d="M10 1.75C5.16644 1.75 1.25 5.66751 1.25 10.5C1.25 15.3336 5.16751 19.25 10 19.25C14.8336 19.25 18.75 15.3325 18.75 10.5C18.75 5.66644 14.8325 1.75 10 1.75ZM10 18.625C5.51231 18.625 1.875 14.988 1.875 10.5C1.875 6.01231 5.512 2.375 10 2.375C14.4877 2.375 18.125 6.012 18.125 10.5C18.125 14.9877 14.488 18.625 10 18.625ZM7.5 15.1875V7.375C7.5 7.02981 7.77981 6.75 8.125 6.75H10.9375C12.4908 6.75 13.75 8.00919 13.75 9.5625C13.75 11.1158 12.4908 12.375 10.9375 12.375H8.125V15.1875C8.125 15.3601 7.98506 15.5 7.8125 15.5C7.63994 15.5 7.5 15.3601 7.5 15.1875ZM10.9375 11.75H8.125V7.375H10.9375C12.1456 7.375 13.125 8.35437 13.125 9.5625C13.125 10.7706 12.1456 11.75 10.9375 11.75Z" fill="#333333"/>
</g>
</g>
<defs>
<clipPath id="clip0_365_19175">
<rect width="26" height="24" fill="white" transform="translate(0 0.5)"/>
</clipPath>
<clipPath id="clip1_365_19175">
<rect width="20" height="20" fill="white" transform="translate(0 0.5)"/>
</clipPath>
</defs>
</svg>
