<svg width="25" height="25" viewBox="0 0 25 25" fill="none" xmlns="http://www.w3.org/2000/svg">
<g clip-path="url(#clip0_365_19251)">
<g clip-path="url(#clip1_365_19251)">
<path fill-rule="evenodd" clip-rule="evenodd" d="M1.35302 8.54438C1.48109 8.66006 1.6787 8.65006 1.79439 8.522C3.99226 6.08904 6.744 4.875 10 4.875C13.2596 4.875 16.0079 6.08714 18.2055 8.52187C18.3212 8.65 18.5187 8.66012 18.6469 8.5445C18.775 8.42881 18.7851 8.23125 18.6695 8.10313C16.3529 5.53658 13.4358 4.25 10 4.25C6.56775 4.25 3.64736 5.53847 1.33061 8.103C1.21492 8.23106 1.22495 8.42869 1.35302 8.54438ZM10 17.375C9.30962 17.375 8.75 16.8154 8.75 16.125C8.75 15.4346 9.30962 14.875 10 14.875C10.6904 14.875 11.25 15.4346 11.25 16.125C11.25 16.8154 10.6904 17.375 10 17.375ZM10 16.75C10.3452 16.75 10.625 16.4702 10.625 16.125C10.625 15.7798 10.3452 15.5 10 15.5C9.65481 15.5 9.375 15.7798 9.375 16.125C9.375 16.4702 9.65481 16.75 10 16.75ZM4.28697 11.0269C4.1669 11.1509 3.96906 11.1541 3.84509 11.034C3.72111 10.9139 3.71796 10.7161 3.83803 10.5921C5.50943 8.86644 7.56919 8 9.99856 8C12.4294 8 14.4901 8.8675 16.1621 10.5952C16.2821 10.7192 16.2788 10.9171 16.1548 11.0371C16.0308 11.1571 15.8329 11.1539 15.7129 11.0298C14.1591 9.42419 12.2606 8.625 9.99856 8.625C7.73787 8.625 5.84025 9.42325 4.28697 11.0269ZM6.97625 13.5412C7.10337 13.6579 7.30106 13.6494 7.41775 13.5223C8.12256 12.7541 8.9765 12.375 9.99931 12.375C11.0227 12.375 11.8771 12.7546 12.5821 13.5237C12.6988 13.6509 12.8964 13.6595 13.0237 13.5429C13.1509 13.4262 13.1595 13.2286 13.0429 13.1013C12.2199 12.2037 11.1988 11.75 9.99931 11.75C8.80056 11.75 7.77988 12.2032 6.95725 13.0997C6.84056 13.2269 6.84906 13.4246 6.97625 13.5412Z" fill="#333333"/>
</g>
</g>
<defs>
<clipPath id="clip0_365_19251">
<rect width="25" height="24" fill="white" transform="translate(0 0.5)"/>
</clipPath>
<clipPath id="clip1_365_19251">
<rect width="20" height="20" fill="white" transform="translate(0 0.5)"/>
</clipPath>
</defs>
</svg>
