<svg width="26" height="25" viewBox="0 0 26 25" fill="none" xmlns="http://www.w3.org/2000/svg">
<g clip-path="url(#clip0_365_19272)">
<g clip-path="url(#clip1_365_19272)">
<path fill-rule="evenodd" clip-rule="evenodd" d="M1.25 10.5C1.25 5.66751 5.16644 1.75 10 1.75C14.8325 1.75 18.75 5.66644 18.75 10.5C18.75 15.3325 14.8336 19.25 10 19.25C5.16751 19.25 1.25 15.3336 1.25 10.5ZM4.03781 4.97976C2.69544 6.42894 1.875 8.36856 1.875 10.5C1.875 14.988 5.51231 18.625 10 18.625C12.1315 18.625 14.0711 17.8046 15.5202 16.4622L10.8081 11.75H4.375C4.02982 11.75 3.75 11.4702 3.75 11.125V9.875C3.75 9.52981 4.02982 9.25 4.375 9.25H8.30806L4.03781 4.97976ZM9.19194 9.25L4.47976 4.53781C5.9289 3.19546 7.8685 2.375 10 2.375C14.4877 2.375 18.125 6.012 18.125 10.5C18.125 12.6314 17.3046 14.5711 15.9622 16.0202L11.6919 11.75H14.375C14.7202 11.75 15 11.4702 15 11.125V9.875C15 9.52981 14.7202 9.25 14.375 9.25H9.19194ZM8.93306 9.875H7.5V11.125H10.1831L8.93306 9.875ZM11.0669 11.125L9.81694 9.875H14.375V11.125H11.0669ZM6.875 9.875H4.375V11.125H6.875V9.875ZM16.25 9.5625C16.25 9.38994 16.1101 9.25 15.9375 9.25C15.7649 9.25 15.625 9.38994 15.625 9.5625V11.4375C15.625 11.6101 15.7649 11.75 15.9375 11.75C16.1101 11.75 16.25 11.6101 16.25 11.4375V9.5625Z" fill="#333333"/>
</g>
</g>
<defs>
<clipPath id="clip0_365_19272">
<rect width="26" height="24" fill="white" transform="translate(0 0.5)"/>
</clipPath>
<clipPath id="clip1_365_19272">
<rect width="20" height="20" fill="white" transform="translate(0 0.5)"/>
</clipPath>
</defs>
</svg>
