<svg width="27" height="25" viewBox="0 0 27 25" fill="none" xmlns="http://www.w3.org/2000/svg">
<g clip-path="url(#clip0_365_19279)">
<g clip-path="url(#clip1_365_19279)">
<path fill-rule="evenodd" clip-rule="evenodd" d="M12.5 16.1249V17.3749H15.9375C16.1101 17.3749 16.25 17.5149 16.25 17.6874C16.25 17.86 16.1101 17.9999 15.9375 17.9999H4.0625C3.88991 17.9999 3.75 17.86 3.75 17.6874C3.75 17.5149 3.88991 17.3749 4.0625 17.3749H7.5V16.1249H3.75C2.71447 16.1249 1.875 15.2854 1.875 14.2499V7.37493C1.875 6.33939 2.71447 5.49993 3.75 5.49993H9.12381L7.65625 2.95806C7.56994 2.80859 7.62119 2.61747 7.77062 2.53118C7.92012 2.44488 8.11125 2.49609 8.1975 2.64556L9.76 5.35189C9.787 5.39865 9.80056 5.44949 9.80181 5.49993H10.1957C10.1969 5.44949 10.2105 5.39865 10.2375 5.35189L11.8 2.64556C11.8863 2.49609 12.0774 2.44488 12.2269 2.53118C12.3764 2.61747 12.4276 2.80859 12.3413 2.95806L10.8737 5.49993H16.25C17.2856 5.49993 18.125 6.33939 18.125 7.37493V14.2499C18.125 15.2854 17.2856 16.1249 16.25 16.1249H12.5ZM11.875 16.1249H8.125V17.3749H11.875V16.1249ZM2.5 7.37493C2.5 6.68457 3.05964 6.12493 3.75 6.12493H16.25C16.9404 6.12493 17.5 6.68457 17.5 7.37493V14.2499C17.5 14.9403 16.9404 15.4999 16.25 15.4999H3.75C3.05964 15.4999 2.5 14.9403 2.5 14.2499V7.37493Z" fill="#333333"/>
</g>
</g>
<defs>
<clipPath id="clip0_365_19279">
<rect width="27" height="24" fill="white" transform="translate(0 0.5)"/>
</clipPath>
<clipPath id="clip1_365_19279">
<rect width="20" height="20" fill="white" transform="translate(0 0.5)"/>
</clipPath>
</defs>
</svg>
