<svg width="26" height="25" viewBox="0 0 26 25" fill="none" xmlns="http://www.w3.org/2000/svg">
<g clip-path="url(#clip0_365_19209)">
<g clip-path="url(#clip1_365_19209)">
<path fill-rule="evenodd" clip-rule="evenodd" d="M3.75 6.125C2.71447 6.125 1.875 5.28553 1.875 4.25C1.875 3.21447 2.71447 2.375 3.75 2.375C4.78553 2.375 5.625 3.21447 5.625 4.25C5.625 5.28553 4.78553 6.125 3.75 6.125ZM5.625 9.25C5.27982 9.25 5 9.52981 5 9.875H2.1875C2.01491 9.875 1.875 10.0149 1.875 10.1875C1.875 10.3601 2.01491 10.5 2.1875 10.5H2.5V13.625C2.5 15.3702 3.52191 16.8768 5 17.579V18.625H5.625V17.8188C6.02107 17.9367 6.44063 18 6.875 18H13.125C13.5594 18 13.9789 17.9367 14.375 17.8188V18.625H15V17.579C16.4781 16.8768 17.5 15.3702 17.5 13.625V10.5H17.8125C17.9851 10.5 18.125 10.3601 18.125 10.1875C18.125 10.0149 17.9851 9.875 17.8125 9.875H16.25V4.875C16.25 3.83938 15.4106 3 14.375 3C13.3394 3 12.5 3.83938 12.5 4.875H12.1875C12.0149 4.875 11.875 5.01491 11.875 5.1875C11.875 5.36009 12.0149 5.5 12.1875 5.5H13.4375C13.6101 5.5 13.75 5.36009 13.75 5.1875C13.75 5.01491 13.6101 4.875 13.4375 4.875H13.125C13.125 4.18438 13.6844 3.625 14.375 3.625C15.0656 3.625 15.625 4.18438 15.625 4.875V9.875H8.75C8.75 9.52981 8.47019 9.25 8.125 9.25H5.625ZM3.125 10.5H5V13.625C5 13.9702 5.27982 14.25 5.625 14.25H8.125C8.47019 14.25 8.75 13.9702 8.75 13.625V10.5H16.875V13.625C16.875 15.6961 15.1961 17.375 13.125 17.375H6.875C4.80393 17.375 3.125 15.6961 3.125 13.625V10.5ZM8.125 12.375V9.875H5.625V12.375H8.125ZM8.125 13V13.625H5.625V13H8.125ZM6.875 8C6.18464 8 5.625 7.44037 5.625 6.75C5.625 6.05964 6.18464 5.5 6.875 5.5C7.56537 5.5 8.125 6.05964 8.125 6.75C8.125 7.44037 7.56537 8 6.875 8ZM7.5 6.75C7.5 7.09519 7.22019 7.375 6.875 7.375C6.52981 7.375 6.25 7.09519 6.25 6.75C6.25 6.40483 6.52981 6.125 6.875 6.125C7.22019 6.125 7.5 6.40483 7.5 6.75ZM5 4.25C5 4.94036 4.44036 5.5 3.75 5.5C3.05964 5.5 2.5 4.94036 2.5 4.25C2.5 3.55964 3.05964 3 3.75 3C4.44036 3 5 3.55964 5 4.25Z" fill="#333333"/>
</g>
</g>
<defs>
<clipPath id="clip0_365_19209">
<rect width="26" height="24" fill="white" transform="translate(0 0.5)"/>
</clipPath>
<clipPath id="clip1_365_19209">
<rect width="20" height="20" fill="white" transform="translate(0 0.5)"/>
</clipPath>
</defs>
</svg>
