<svg width="51" height="48" viewBox="0 0 51 48" fill="none" xmlns="http://www.w3.org/2000/svg">
<g clip-path="url(#clip0_565_335)">
<path d="M25.5419 36.1219L37.1951 42.2531L34.9732 29.2781L44.4044 20.0906L31.3732 18.1969L25.5419 6.38437V0C26.6107 0 27.6794 0.553125 28.2326 1.66875L34.3544 14.0812L48.0513 16.0687C50.5076 16.425 51.4919 19.4531 49.7107 21.1875L39.8013 30.8438L42.1451 44.4844C42.5669 46.9313 39.9888 48.7969 37.7951 47.6438L25.5419 41.2125V36.1219Z" fill="#FFC403"/>
</g>
<g clip-path="url(#clip1_565_335)">
<path d="M25.6983 36.1219L14.0452 42.2531L16.267 29.2781L6.83579 20.0906L19.867 18.1969L25.6983 6.38437V0C24.6295 0 23.5608 0.553125 23.0077 1.66875L16.8858 14.0812L3.18891 16.0687C0.732662 16.425 -0.251713 19.4531 1.52954 21.1875L11.4389 30.8438L9.09516 44.4844C8.67329 46.9313 11.2514 48.7969 13.4452 47.6438L25.6983 41.2125V36.1219Z" fill="#FFC403"/>
</g>
<defs>
<clipPath id="clip0_565_335">
<rect width="25.08" height="48" fill="white" transform="translate(25.6201)"/>
</clipPath>
<clipPath id="clip1_565_335">
<rect width="25.08" height="48" fill="white" transform="translate(0.620117)"/>
</clipPath>
</defs>
</svg>
