<svg width="51" height="48" viewBox="0 0 51 48" fill="none" xmlns="http://www.w3.org/2000/svg">
<g clip-path="url(#clip0_565_325)">
<path d="M25.3818 36.1219L37.0349 42.2531L34.813 29.2781L44.2443 20.0906L31.213 18.1969L25.3818 6.38437V0C26.4505 0 27.5193 0.553125 28.0724 1.66875L34.1943 14.0812L47.8912 16.0687C50.3474 16.425 51.3318 19.4531 49.5505 21.1875L39.6412 30.8438L41.9849 44.4844C42.4068 46.9313 39.8287 48.7969 37.6349 47.6438L25.3818 41.2125V36.1219Z" fill="#FFC403"/>
</g>
<g clip-path="url(#clip1_565_325)">
<path d="M25.5381 36.1219L13.885 42.2531L16.1069 29.2781L6.67563 20.0906L19.7069 18.1969L25.5381 6.38437V0C24.4694 0 23.4006 0.553125 22.8475 1.66875L16.7256 14.0812L3.02876 16.0687C0.572506 16.425 -0.41187 19.4531 1.36938 21.1875L11.2788 30.8438L8.93501 44.4844C8.51313 46.9313 11.0913 48.7969 13.285 47.6438L25.5381 41.2125V36.1219Z" fill="#FFC403"/>
</g>
<defs>
<clipPath id="clip0_565_325">
<rect width="25.08" height="48" fill="white" transform="translate(25.46)"/>
</clipPath>
<clipPath id="clip1_565_325">
<rect width="25.08" height="48" fill="white" transform="translate(0.459961)"/>
</clipPath>
</defs>
</svg>
