<svg width="51" height="48" viewBox="0 0 51 48" fill="none" xmlns="http://www.w3.org/2000/svg">
<g clip-path="url(#clip0_565_320)">
<path d="M25.3017 36.1219L36.9548 42.2531L34.733 29.2781L44.1642 20.0906L31.133 18.1969L25.3017 6.38437V0C26.3705 0 27.4392 0.553125 27.9923 1.66875L34.1142 14.0812L47.8111 16.0687C50.2673 16.425 51.2517 19.4531 49.4705 21.1875L39.5611 30.8438L41.9048 44.4844C42.3267 46.9313 39.7486 48.7969 37.5548 47.6438L25.3017 41.2125V36.1219Z" fill="#FFC403"/>
</g>
<g clip-path="url(#clip1_565_320)">
<path d="M25.4581 36.1219L13.8049 42.2531L16.0268 29.2781L6.59555 20.0906L19.6268 18.1969L25.4581 6.38437V0C24.3893 0 23.3206 0.553125 22.7674 1.66875L16.6456 14.0812L2.94868 16.0687C0.492427 16.425 -0.491948 19.4531 1.2893 21.1875L11.1987 30.8438L8.85493 44.4844C8.43305 46.9313 11.0112 48.7969 13.2049 47.6438L25.4581 41.2125V36.1219Z" fill="#FFC403"/>
</g>
<defs>
<clipPath id="clip0_565_320">
<rect width="25.08" height="48" fill="white" transform="translate(25.3799)"/>
</clipPath>
<clipPath id="clip1_565_320">
<rect width="25.08" height="48" fill="white" transform="translate(0.379883)"/>
</clipPath>
</defs>
</svg>
