<svg width="51" height="48" viewBox="0 0 51 48" fill="none" xmlns="http://www.w3.org/2000/svg">
<g clip-path="url(#clip0_565_315)">
<path d="M25.2216 36.1219L36.8748 42.2531L34.6529 29.2781L44.0841 20.0906L31.0529 18.1969L25.2216 6.38437V0C26.2904 0 27.3591 0.553125 27.9123 1.66875L34.0341 14.0812L47.731 16.0687C50.1873 16.425 51.1716 19.4531 49.3904 21.1875L39.481 30.8438L41.8248 44.4844C42.2466 46.9313 39.6685 48.7969 37.4748 47.6438L25.2216 41.2125V36.1219Z" fill="#FFC403"/>
</g>
<g clip-path="url(#clip1_565_315)">
<path d="M25.378 36.1219L13.7248 42.2531L15.9467 29.2781L6.51547 20.0906L19.5467 18.1969L25.378 6.38437V0C24.3092 0 23.2405 0.553125 22.6873 1.66875L16.5655 14.0812L2.8686 16.0687C0.412349 16.425 -0.572026 19.4531 1.20922 21.1875L11.1186 30.8438L8.77485 44.4844C8.35297 46.9313 10.9311 48.7969 13.1248 47.6438L25.378 41.2125V36.1219Z" fill="#FFC403"/>
</g>
<defs>
<clipPath id="clip0_565_315">
<rect width="25.08" height="48" fill="white" transform="translate(25.2998)"/>
</clipPath>
<clipPath id="clip1_565_315">
<rect width="25.08" height="48" fill="white" transform="translate(0.299805)"/>
</clipPath>
</defs>
</svg>
