<svg width="51" height="48" viewBox="0 0 51 48" fill="none" xmlns="http://www.w3.org/2000/svg">
<g clip-path="url(#clip0_565_330)">
<path d="M25.4619 36.1219L37.115 42.2531L34.8931 29.2781L44.3244 20.0906L31.2931 18.1969L25.4619 6.38437V0C26.5306 0 27.5994 0.553125 28.1525 1.66875L34.2744 14.0812L47.9712 16.0687C50.4275 16.425 51.4119 19.4531 49.6306 21.1875L39.7212 30.8438L42.065 44.4844C42.4869 46.9313 39.9087 48.7969 37.715 47.6438L25.4619 41.2125V36.1219Z" fill="#FFC403"/>
</g>
<g clip-path="url(#clip1_565_330)">
<path d="M25.6182 36.1219L13.9651 42.2531L16.187 29.2781L6.75571 20.0906L19.787 18.1969L25.6182 6.38437V0C24.5495 0 23.4807 0.553125 22.9276 1.66875L16.8057 14.0812L3.10883 16.0687C0.652584 16.425 -0.331791 19.4531 1.44946 21.1875L11.3588 30.8438L9.01508 44.4844C8.59321 46.9313 11.1713 48.7969 13.3651 47.6438L25.6182 41.2125V36.1219Z" fill="#FFC403"/>
</g>
<defs>
<clipPath id="clip0_565_330">
<rect width="25.08" height="48" fill="white" transform="translate(25.54)"/>
</clipPath>
<clipPath id="clip1_565_330">
<rect width="25.08" height="48" fill="white" transform="translate(0.540039)"/>
</clipPath>
</defs>
</svg>
