<svg width="486" height="181" viewBox="0 0 486 181" fill="none" xmlns="http://www.w3.org/2000/svg">
<rect y="0.5" width="486" height="180" rx="12" fill="#FAFAFA"/>
<path d="M45.637 52.2906C45 50.0824 47.3 46.4506 49 45.9659V44.0294C44.066 46.4506 42 51.0329 42 55.3353C42 56.7706 42.37 57.9894 43.107 58.9941C43.846 59.9977 44.725 60.5 45.747 60.5C46.657 60.5 47.419 60.1141 48.029 59.3412C48.64 58.5694 48.945 57.62 48.945 56.4941C48.945 55.4353 48.635 54.5035 48.015 53.6977C47.395 52.8918 46.603 52.4235 45.637 52.2906ZM54.637 52.2906C54 50.0824 56.3 46.4506 58 45.9659V44.0294C53.066 46.4506 51 51.0329 51 55.3353C51 56.7706 51.37 57.9894 52.107 58.9941C52.846 59.9977 53.725 60.5 54.747 60.5C55.657 60.5 56.419 60.1141 57.029 59.3412C57.64 58.5694 57.945 57.62 57.945 56.4941C57.945 55.4353 57.635 54.5035 57.015 53.6977C56.395 52.8918 55.603 52.4235 54.637 52.2906Z" fill="#4793DF"/>
</svg>
