<svg width="44" height="48" viewBox="0 0 44 48" fill="none" xmlns="http://www.w3.org/2000/svg">
<path fill-rule="evenodd" clip-rule="evenodd" d="M26 23C26.394 23.0002 26.7842 22.9227 27.1483 22.772C27.5124 22.6213 27.8433 22.4004 28.122 22.1219C28.4007 21.8434 28.6218 21.5127 28.7727 21.1487C28.9236 20.7847 29.0014 20.3946 29.0015 20.0005C29.0016 19.6065 28.9242 19.2163 28.7735 18.8522C28.6228 18.4881 28.4019 18.1573 28.1234 17.8786C27.8449 17.5998 27.5142 17.3787 27.1502 17.2278C26.7862 17.0769 26.396 16.9992 26.002 16.999C25.2062 16.9988 24.4429 17.3146 23.88 17.8771C23.3171 18.4397 23.0008 19.2027 23.0005 19.9985C23.0002 20.7943 23.3161 21.5576 23.8786 22.1205C24.4411 22.6834 25.2042 22.9998 26 23ZM19.003 29.025C18.996 25.512 23.483 24 26 24C28.558 24 33.007 25.563 32.995 28.993C32.995 29.051 32.997 29.097 32.998 29.139L33 29.248C33.004 30.308 32.147 30.994 31.238 30.997C30.636 31.001 26.006 30.999 26.006 30.999C26.006 30.999 22.136 31.008 20.8 30.998C19.465 30.988 19.004 29.868 19 29.306L19.002 29.118L19.003 29.025Z" fill="#999999"/>
</svg>
