<svg width="24" height="22" viewBox="0 0 24 22" fill="none" xmlns="http://www.w3.org/2000/svg">
<path d="M18.6877 14.0196L20.0468 19.6418C20.1424 20.3637 19.9368 20.9302 19.4318 21.3386C18.7403 21.8994 17.9054 21.8447 17.3701 21.6405C17.0371 21.4766 15.2303 20.4715 11.9466 18.6281C8.6629 20.4715 6.85454 21.4766 6.52315 21.642C5.98781 21.8433 5.15294 21.9008 4.45987 21.3386C3.9548 20.9302 3.75087 20.3637 3.84487 19.6418L5.20392 14.0196L5.19755 14.0153L5.19914 14.011C2.30418 11.637 0.728447 10.3299 0.475118 10.0941C0.0815825 9.71021 -0.166967 8.96393 0.132567 8.21191C0.4321 7.45988 1.20165 7.13923 1.65254 7.09034C1.95526 7.06014 3.99782 6.8804 7.78342 6.554H7.77545C9.31295 3.16341 10.1494 1.34733 10.2864 1.10289C10.4904 0.736221 11.1468 0.215698 11.9466 0.215698C12.7464 0.215698 13.3232 0.693084 13.5686 1.03962C13.7279 1.32433 14.5787 3.16341 16.1178 6.554C19.9018 6.8804 21.9459 7.06014 22.2471 7.09178C22.698 7.13923 23.4675 7.45988 23.767 8.21335C24.0666 8.96393 23.818 9.70877 23.4245 10.0941C23.1696 10.3314 21.5922 11.6384 18.6941 14.0153L18.6877 14.0196Z" fill="#FFAD0A"/>
</svg>
