<svg width="15" height="15" viewBox="0 0 15 15" fill="none" xmlns="http://www.w3.org/2000/svg">
<path d="M10.6719 9.075L11.3117 12.0075C11.3567 12.384 11.2599 12.6795 11.0222 12.8925C10.6967 13.185 10.3037 13.1565 10.0517 13.05C9.8949 12.9645 9.0444 12.4403 7.49865 11.4788C5.9529 12.4403 5.10165 12.9645 4.94565 13.0507C4.69365 13.1557 4.30065 13.1858 3.9744 12.8925C3.73665 12.6795 3.64065 12.384 3.6849 12.0075L4.32465 9.075L4.32165 9.07275L4.3224 9.0705C2.95965 7.83225 2.2179 7.1505 2.09865 7.0275C1.9134 6.82725 1.7964 6.438 1.9374 6.04575C2.0784 5.6535 2.44065 5.48625 2.6529 5.46075C2.7954 5.445 3.7569 5.35125 5.5389 5.181H5.53515C6.2589 3.4125 6.65265 2.46525 6.71715 2.33775C6.81315 2.1465 7.12215 1.875 7.49865 1.875C7.87515 1.875 8.14665 2.124 8.26215 2.30475C8.33715 2.45325 8.73765 3.4125 9.46215 5.181C11.2434 5.35125 12.2057 5.445 12.3474 5.4615C12.5597 5.48625 12.9219 5.6535 13.0629 6.0465C13.2039 6.438 13.0869 6.8265 12.9017 7.0275C12.7817 7.15125 12.0392 7.833 10.6749 9.07275L10.6719 9.075Z" fill="#FFAD0A"/>
</svg>
