<svg width="16" height="16" viewBox="0 0 16 16" fill="none" xmlns="http://www.w3.org/2000/svg">
<path fill-rule="evenodd" clip-rule="evenodd" d="M11.9988 6.64415L9.46919 6.64815L9.88919 5.68575C10.2676 4.81695 10.6412 3.96095 10.7204 3.78975C10.886 3.43055 10.83 2.90255 10.3476 2.56575C9.59879 2.14575 9.02759 2.63295 8.89559 2.84735C8.76279 3.00495 5.96919 6.51935 5.82599 6.75695C5.59239 7.16095 5.59399 7.34575 5.59719 7.85055C5.59719 7.95375 5.59879 8.06975 5.59719 8.20335L5.60599 12.0065C5.60747 12.4305 5.77727 12.8366 6.07806 13.1354C6.37885 13.4343 6.78599 13.6014 7.20999 13.6001L10.9844 13.5889C11.3345 13.5878 11.6746 13.4718 11.9525 13.2588C12.2304 13.0458 12.4307 12.7475 12.5228 12.4097L13.5444 8.66335C13.609 8.42594 13.618 8.17682 13.5706 7.93538C13.5232 7.69394 13.4208 7.46669 13.2712 7.27131C13.1217 7.07594 12.929 6.9177 12.7083 6.80892C12.4877 6.70014 12.2448 6.64376 11.9988 6.64415ZM4.79879 7.83695C4.78745 7.52648 4.65614 7.23251 4.43249 7.01688C4.20883 6.80125 3.91026 6.68076 3.59959 6.68076C3.28892 6.68076 2.99035 6.80125 2.7667 7.01688C2.54304 7.23251 2.41173 7.52648 2.40039 7.83695V12.3937C2.40847 12.7065 2.5384 13.0038 2.76249 13.2222C2.98658 13.4406 3.2871 13.5628 3.59999 13.5628C3.91289 13.5628 4.21341 13.4406 4.43749 13.2222C4.66158 13.0038 4.79151 12.7065 4.79959 12.3937L4.79879 7.83695Z" fill="#707070"/>
</svg>
