<svg width="16" height="16" viewBox="0 0 16 16" fill="none" xmlns="http://www.w3.org/2000/svg">
<path fill-rule="evenodd" clip-rule="evenodd" d="M3.09639 2.3089C3.54279 1.8641 4.10999 1.6265 4.80039 1.6001L8.80039 1.6009V3.1985L4.80439 3.2049C4.56759 3.2113 4.37719 3.2873 4.23239 3.4329C4.08839 3.5769 4.01159 3.7689 4.00199 4.0065L3.99959 9.6009H2.40039V4.0089C2.41799 3.3209 2.64999 2.7553 3.09639 2.3089ZM7.20039 4.8009H9.59879L9.59959 8.0049C9.61239 8.2385 9.69159 8.4273 9.83879 8.5729C9.98832 8.71972 10.19 8.80116 10.3996 8.7993L13.6004 8.8049V12.8009C13.6004 13.2252 13.4318 13.6322 13.1318 13.9323C12.8317 14.2323 12.4247 14.4009 12.0004 14.4009H7.20039C6.77604 14.4009 6.36908 14.2323 6.06902 13.9323C5.76896 13.6322 5.60039 13.2252 5.60039 12.8009V6.4009C5.60039 5.97655 5.76896 5.56958 6.06902 5.26953C6.36908 4.96947 6.77604 4.8009 7.20039 4.8009ZM13.6004 8.0009L10.4004 4.8009V8.0009H13.6004Z" fill="#1273E4"/>
</svg>
