<svg width="16" height="16" viewBox="0 0 16 16" fill="none" xmlns="http://www.w3.org/2000/svg">
<path d="M5.88283 2.16676C5.745 2.04424 5.567 1.97656 5.38259 1.97656C5.19818 1.97656 5.02019 2.04424 4.88236 2.16676L2.88236 3.94464C2.81373 4.00554 2.76528 4.0859 2.74345 4.17502C2.72161 4.26413 2.72743 4.35779 2.76013 4.44352C2.79283 4.52924 2.85085 4.60299 2.92649 4.65493C3.00212 4.70687 3.09178 4.73455 3.18353 4.73429H4.63012V14.0237H6.136V4.73429H7.58259C7.67435 4.73455 7.764 4.70687 7.83964 4.65493C7.91527 4.60299 7.9733 4.52924 8.006 4.44352C8.0387 4.35779 8.04451 4.26413 8.02268 4.17502C8.00085 4.0859 7.95239 4.00554 7.88377 3.94464L5.88283 2.16676ZM10.1708 13.8336C10.3087 13.9561 10.4867 14.0238 10.6711 14.0238C10.8555 14.0238 11.0335 13.9561 11.1713 13.8336L13.1713 12.0557C13.2396 11.9947 13.2877 11.9144 13.3093 11.8255C13.331 11.7365 13.3251 11.6431 13.2924 11.5576C13.2597 11.4721 13.2019 11.3985 13.1265 11.3466C13.0511 11.2947 12.9617 11.2669 12.8701 11.267H11.4235V1.97664H9.91765V11.2661H8.47106C8.3796 11.2662 8.29034 11.2941 8.21507 11.3461C8.13981 11.398 8.08209 11.4716 8.04955 11.5571C8.01702 11.6426 8.01119 11.7359 8.03284 11.8248C8.0545 11.9136 8.10261 11.9938 8.17083 12.0548L10.1708 13.8326V13.8336Z" fill="#333333"/>
</svg>
