<svg width="17" height="17" viewBox="0 0 17 17" fill="none" xmlns="http://www.w3.org/2000/svg">
<path fill-rule="evenodd" clip-rule="evenodd" d="M4.88047 2.90002C4.24395 2.90002 3.6335 3.15288 3.18341 3.60297C2.73333 4.05306 2.48047 4.6635 2.48047 5.30002V11.7C2.48047 12.3365 2.73333 12.947 3.18341 13.3971C3.6335 13.8472 4.24395 14.1 4.88047 14.1H11.2805C11.917 14.1 12.5274 13.8472 12.9775 13.3971C13.4276 12.947 13.6805 12.3365 13.6805 11.7V5.30002C13.6805 4.6635 13.4276 4.05306 12.9775 3.60297C12.5274 3.15288 11.917 2.90002 11.2805 2.90002H4.88047ZM4.08047 9.41442C4.08047 9.41442 4.66447 8.39602 5.14207 7.60082C5.36207 7.22962 6.24447 6.49522 7.33807 7.12642C7.60847 7.32882 7.69487 7.41202 7.86287 7.66962C8.63567 9.00242 9.40767 10.3176 9.40767 10.3176C9.40767 10.3176 9.47647 10.192 9.51967 10.1216C9.70948 9.81777 9.99532 9.586 10.3318 9.4631C10.6684 9.3402 11.0363 9.3332 11.3773 9.44322C11.8269 9.61362 12.0805 9.90562 12.0805 9.90562C12.0805 9.90562 12.0805 5.39602 12.0853 5.30562C12.0853 4.84482 11.7173 4.50802 11.2805 4.50002C11.0109 4.50242 9.11167 4.50082 7.44847 4.50002H4.88047C4.44047 4.50242 4.08047 4.85682 4.08047 5.30002C4.07887 5.79682 4.08047 9.41442 4.08047 9.41442ZM11.2805 6.50002C11.2805 6.65761 11.2494 6.81365 11.1891 6.95924C11.1288 7.10484 11.0404 7.23712 10.929 7.34855C10.8176 7.45998 10.6853 7.54837 10.5397 7.60868C10.3941 7.66899 10.2381 7.70002 10.0805 7.70002C9.92288 7.70002 9.76684 7.66899 9.62125 7.60868C9.47566 7.54837 9.34337 7.45998 9.23194 7.34855C9.12051 7.23712 9.03212 7.10484 8.97181 6.95924C8.91151 6.81365 8.88047 6.65761 8.88047 6.50002C8.88047 6.18176 9.0069 5.87654 9.23194 5.6515C9.45698 5.42645 9.76221 5.30002 10.0805 5.30002C10.3987 5.30002 10.704 5.42645 10.929 5.6515C11.154 5.87654 11.2805 6.18176 11.2805 6.50002Z" fill="#333333"/>
</svg>
