<svg width="4" height="9" viewBox="0 0 4 9" fill="none" xmlns="http://www.w3.org/2000/svg">
<path d="M0.909609 0.77002C0.712131 0.770654 0.521641 0.843171 0.373733 0.974018C0.225825 1.10487 0.130621 1.28509 0.105909 1.48102L0.0996094 1.58002V5.09002C0.0996094 5.15482 0.106809 5.21692 0.120309 5.27722C0.1265 5.43822 0.180726 5.59369 0.27601 5.72362L0.35701 5.81812L2.39371 7.85482C2.53872 8.00045 2.73367 8.08551 2.93906 8.09277C3.14445 8.10003 3.34491 8.02895 3.49985 7.89392C3.65478 7.7589 3.7526 7.57003 3.77348 7.36558C3.79436 7.16112 3.73675 6.95638 3.61231 6.79282L3.53941 6.70912L1.71961 4.88932V1.58002C1.71961 1.36519 1.63427 1.15917 1.48237 1.00726C1.33046 0.855358 1.12443 0.77002 0.909609 0.77002Z" fill="#999999"/>
</svg>
