<svg width="16" height="16" viewBox="0 0 16 16" fill="none" xmlns="http://www.w3.org/2000/svg">
<path d="M15.1998 8.00005C15.1998 9.90961 14.4412 11.741 13.091 13.0912C11.7407 14.4415 9.90936 15.2 7.99981 15.2C6.09025 15.2 4.2589 14.4415 2.90864 13.0912C1.55837 11.741 0.799805 9.90961 0.799805 8.00005C0.799805 6.09049 1.55837 4.25914 2.90864 2.90888C4.2589 1.55862 6.09025 0.800049 7.99981 0.800049C9.90936 0.800049 11.7407 1.55862 13.091 2.90888C14.4412 4.25914 15.1998 6.09049 15.1998 8.00005ZM13.3998 8.00005C13.3998 6.56788 12.8309 5.19437 11.8182 4.18167C10.8055 3.16898 9.43197 2.60005 7.99981 2.60005C6.56764 2.60005 5.19413 3.16898 4.18143 4.18167C3.16873 5.19437 2.5998 6.56788 2.5998 8.00005C2.5998 9.43222 3.16873 10.8057 4.18143 11.8184C5.19413 12.8311 6.56764 13.4 7.99981 13.4C9.43197 13.4 10.8055 12.8311 11.8182 11.8184C12.8309 10.8057 13.3998 9.43222 13.3998 8.00005Z" fill="#999999"/>
</svg>
