<svg width="26" height="25" viewBox="0 0 26 25" fill="none" xmlns="http://www.w3.org/2000/svg">
<g clip-path="url(#clip0_365_19202)">
<g clip-path="url(#clip1_365_19202)">
<path fill-rule="evenodd" clip-rule="evenodd" d="M9.6875 3.625V3H9.0625C8.88994 3 8.75 2.86009 8.75 2.6875C8.75 2.51491 8.88994 2.375 9.0625 2.375H10.9375C11.1101 2.375 11.25 2.51491 11.25 2.6875C11.25 2.86009 11.1101 3 10.9375 3H10.3125V3.625H12.5C14.8727 3.625 16.8042 5.52014 16.8731 7.87612C16.8744 7.91937 16.7971 8 16.75 8H3.25C3.21454 8 3.12557 7.91731 3.12672 7.87612C3.19229 5.51717 5.12517 3.625 7.5 3.625H9.6875ZM16.875 9.25V12.375C16.875 14.4461 15.1961 16.125 13.125 16.125H6.875C4.80393 16.125 3.125 14.4461 3.125 12.375V9.25H2.1875C2.01491 9.25 1.875 9.11006 1.875 8.9375C1.875 8.76494 2.01491 8.625 2.1875 8.625H17.8125C17.9851 8.625 18.125 8.76494 18.125 8.9375C18.125 9.11006 17.9851 9.25 17.8125 9.25H16.875ZM8.4375 16.75H7.8125C7.63994 16.75 7.5 16.8899 7.5 17.0625C7.5 17.2351 7.63994 17.375 7.8125 17.375H8.4375C8.61006 17.375 8.75 17.2351 8.75 17.0625C8.75 16.8899 8.61006 16.75 8.4375 16.75ZM15.9375 18H4.0625C3.88991 18 3.75 18.1399 3.75 18.3125C3.75 18.4851 3.88991 18.625 4.0625 18.625H15.9375C16.1101 18.625 16.25 18.4851 16.25 18.3125C16.25 18.1399 16.1101 18 15.9375 18ZM9.6875 16.75H10.3125C10.4851 16.75 10.625 16.8899 10.625 17.0625C10.625 17.2351 10.4851 17.375 10.3125 17.375H9.6875C9.51494 17.375 9.375 17.2351 9.375 17.0625C9.375 16.8899 9.51494 16.75 9.6875 16.75ZM12.1875 16.75H11.5625C11.3899 16.75 11.25 16.8899 11.25 17.0625C11.25 17.2351 11.3899 17.375 11.5625 17.375H12.1875C12.3601 17.375 12.5 17.2351 12.5 17.0625C12.5 16.8899 12.3601 16.75 12.1875 16.75ZM3.75 12.375V9.25H16.25V12.375C16.25 14.1009 14.8509 15.5 13.125 15.5H6.875C5.14911 15.5 3.75 14.1009 3.75 12.375ZM7.5 4.25H12.5C14.3581 4.25 15.9006 5.60143 16.1981 7.375H3.80185C4.0994 5.60143 5.64188 4.25 7.5 4.25Z" fill="#333333"/>
</g>
</g>
<defs>
<clipPath id="clip0_365_19202">
<rect width="26" height="24" fill="white" transform="translate(0 0.5)"/>
</clipPath>
<clipPath id="clip1_365_19202">
<rect width="20" height="20" fill="white" transform="translate(0 0.5)"/>
</clipPath>
</defs>
</svg>
