<svg width="25" height="25" viewBox="0 0 25 25" fill="none" xmlns="http://www.w3.org/2000/svg">
<g clip-path="url(#clip0_365_19265)">
<g clip-path="url(#clip1_365_19265)">
<path fill-rule="evenodd" clip-rule="evenodd" d="M13.75 18.625H6.25V19.25H5.625V18.625H4.36987C4.02753 18.625 3.75 18.3462 3.75 18.0044V3.62039C3.75 2.58741 4.58957 1.75 5.62137 1.75H14.3786C15.4122 1.75 16.25 2.58683 16.25 3.62039V18.0044C16.25 18.3471 15.9654 18.625 15.6301 18.625H14.375V19.25H13.75V18.625ZM4.375 8.625V18H15.625V8.625H4.375ZM15.625 8H4.375V3.62039C4.375 2.93334 4.93399 2.375 5.62137 2.375H14.3786C15.0673 2.375 15.625 2.93231 15.625 3.62039V8ZM5.625 6.4375C5.625 6.26491 5.75984 6.125 5.93462 6.125H7.19037C7.36137 6.125 7.5 6.26996 7.5 6.4375C7.5 6.61009 7.36512 6.75 7.19037 6.75H5.93462C5.76362 6.75 5.625 6.60504 5.625 6.4375ZM5.93462 9.875C5.75984 9.875 5.625 10.0149 5.625 10.1875C5.625 10.3551 5.76362 10.5 5.93462 10.5H7.19037C7.36512 10.5 7.5 10.3601 7.5 10.1875C7.5 10.0199 7.36137 9.875 7.19037 9.875H5.93462Z" fill="#333333"/>
</g>
</g>
<defs>
<clipPath id="clip0_365_19265">
<rect width="25" height="24" fill="white" transform="translate(0 0.5)"/>
</clipPath>
<clipPath id="clip1_365_19265">
<rect width="20" height="20" fill="white" transform="translate(0 0.5)"/>
</clipPath>
</defs>
</svg>
