<svg width="25" height="25" viewBox="0 0 25 25" fill="none" xmlns="http://www.w3.org/2000/svg">
<g clip-path="url(#clip0_365_19181)">
<g clip-path="url(#clip1_365_19181)">
<path fill-rule="evenodd" clip-rule="evenodd" d="M7.5 16.7499V11.4841L14.4594 10.5351C14.7691 10.4929 15 10.2284 15 9.91582V4.75694C15 4.44439 14.7691 4.1799 14.4594 4.13767L6.20415 3.01195C6.00872 2.98529 5.8117 2.97192 5.61446 2.97192C3.20403 2.97192 1.25 4.92596 1.25 7.33639C1.25 7.53364 1.26337 7.73064 1.29002 7.92607C1.49703 9.4442 2.46138 10.6729 3.75 11.2831V16.7499C3.75 17.7854 4.58947 18.6249 5.625 18.6249C6.66056 18.6249 7.5 17.7854 7.5 16.7499ZM5.61446 3.59692C5.78346 3.59692 5.95226 3.60838 6.11971 3.63122L14.375 4.75694V9.91582L6.11971 11.0416C4.0734 11.3206 2.18833 9.88795 1.90929 7.84164C1.88646 7.6742 1.875 7.50539 1.875 7.33639C1.875 5.27114 3.54921 3.59692 5.61446 3.59692ZM6.875 11.5693L6.20415 11.6608C5.57071 11.7472 4.95051 11.693 4.375 11.5223V16.7499C4.375 17.4403 4.93464 17.9999 5.625 17.9999C6.31537 17.9999 6.875 17.4403 6.875 16.7499V11.5693ZM3.75 7.37489C3.75 8.41045 4.58947 9.24989 5.625 9.24989C6.66056 9.24989 7.5 8.41045 7.5 7.37489C7.5 6.33937 6.66056 5.4999 5.625 5.4999C4.58947 5.4999 3.75 6.33937 3.75 7.37489ZM5.625 8.62489C6.31537 8.62489 6.875 8.06526 6.875 7.37489C6.875 6.68455 6.31537 6.1249 5.625 6.1249C4.93464 6.1249 4.375 6.68455 4.375 7.37489C4.375 8.06526 4.93464 8.62489 5.625 8.62489ZM18.6304 5.73724C18.7544 5.64914 18.7873 5.4715 18.7039 5.34049C18.5201 5.05149 18.1908 4.87491 17.8335 4.87491C17.4759 4.87491 17.1469 5.05124 16.9631 5.34027C16.8819 5.46768 16.7226 5.55316 16.5413 5.55316C16.3601 5.55316 16.2008 5.46779 16.1201 5.3407C16.0369 5.20961 15.8688 5.17466 15.7448 5.26265C15.6208 5.35064 15.5877 5.52824 15.6709 5.65933C15.8545 5.94841 16.1838 6.1249 16.5413 6.1249C16.8987 6.1249 17.2281 5.94835 17.4119 5.65931C17.493 5.53195 17.6522 5.44665 17.8335 5.44665C18.0145 5.44665 18.1739 5.53214 18.255 5.65954C18.3384 5.79056 18.5064 5.82534 18.6304 5.73724ZM18.7039 7.21551C18.7873 7.34651 18.7544 7.52414 18.6304 7.61226C18.5064 7.70032 18.3384 7.66557 18.255 7.53451C18.1739 7.40714 18.0145 7.32164 17.8335 7.32164C17.6522 7.32164 17.493 7.40695 17.4119 7.53432C17.2281 7.82339 16.8987 7.99989 16.5413 7.99989C16.1838 7.99989 15.8545 7.82339 15.6709 7.53432C15.5877 7.40326 15.6208 7.22564 15.7448 7.13764C15.8688 7.04964 16.0369 7.08464 16.1201 7.2157C16.2008 7.34282 16.3601 7.42814 16.5413 7.42814C16.7226 7.42814 16.8819 7.3427 16.9631 7.21526C17.1469 6.92626 17.4759 6.74989 17.8335 6.74989C18.1908 6.74989 18.5201 6.92651 18.7039 7.21551ZM18.6304 9.48726C18.7544 9.39914 18.7873 9.22151 18.7039 9.09051C18.5201 8.80151 18.1908 8.62489 17.8335 8.62489C17.4759 8.62489 17.1469 8.80126 16.9631 9.09026C16.8819 9.2177 16.7226 9.30314 16.5413 9.30314C16.3601 9.30314 16.2008 9.21782 16.1201 9.0907C16.0369 8.95964 15.8688 8.92464 15.7448 9.01264C15.6208 9.10064 15.5877 9.27826 15.6709 9.40932C15.8545 9.69839 16.1838 9.87489 16.5413 9.87489C16.8987 9.87489 17.2281 9.69839 17.4119 9.40932C17.493 9.28195 17.6522 9.19664 17.8335 9.19664C18.0145 9.19664 18.1739 9.28214 18.255 9.40951C18.3384 9.54057 18.5064 9.57532 18.6304 9.48726Z" fill="#333333"/>
</g>
</g>
<defs>
<clipPath id="clip0_365_19181">
<rect width="25" height="24" fill="white" transform="translate(0 0.5)"/>
</clipPath>
<clipPath id="clip1_365_19181">
<rect width="20" height="20" fill="white" transform="translate(0 0.5)"/>
</clipPath>
</defs>
</svg>
