<svg width="25" height="25" viewBox="0 0 25 25" fill="none" xmlns="http://www.w3.org/2000/svg">
<g clip-path="url(#clip0_365_19195)">
<g clip-path="url(#clip1_365_19195)">
<path fill-rule="evenodd" clip-rule="evenodd" d="M8.36231 1.86958C8.27425 1.74561 8.09662 1.71269 7.96556 1.79606C7.67656 1.97996 7.5 2.30921 7.5 2.66651C7.5 3.02404 7.67631 3.35306 7.96537 3.53697C8.09275 3.61804 8.17825 3.77747 8.17825 3.95874C8.17825 4.13988 8.09288 4.29916 7.96581 4.37987C7.83469 4.46312 7.79975 4.63118 7.88775 4.75522C7.97575 4.87926 8.15331 4.91233 8.28444 4.82907C8.5735 4.64548 8.75 4.31618 8.75 3.95874C8.75 3.60123 8.57344 3.27195 8.28444 3.08803C8.15706 3.00699 8.07175 2.84783 8.07175 2.66651C8.07175 2.48547 8.15725 2.32606 8.28463 2.24499C8.41562 2.16163 8.45044 1.99355 8.36231 1.86958ZM6.83256 12.394C5.00343 11.4656 3.75 9.56669 3.75 7.375V6.125H2.8125C2.63991 6.125 2.5 5.98509 2.5 5.8125C2.5 5.63991 2.63991 5.5 2.8125 5.5H17.1875C17.3601 5.5 17.5 5.63991 17.5 5.8125C17.5 5.98509 17.3601 6.125 17.1875 6.125H16.25V7.375C16.25 9.58275 14.9781 11.4935 13.127 12.4143L14.3202 16.7512C14.3384 16.7504 14.3566 16.75 14.375 16.75C15.0654 16.75 15.625 17.3096 15.625 18C15.625 18.6904 15.0654 19.25 14.375 19.25C13.6846 19.25 13.125 18.6904 13.125 18C13.125 17.5484 13.3644 17.1529 13.7232 16.9332L13.3289 15.5H6.63825L5.68459 19.0208C5.63991 19.1857 5.46856 19.2836 5.30185 19.2394C5.13514 19.1952 5.03621 19.0257 5.08088 18.8608L6.83256 12.394ZM7.41094 12.6476L6.80756 14.875H13.1569L12.5483 12.6626C11.9482 12.8809 11.3005 13 10.625 13H9.375C8.68412 13 8.02238 12.8754 7.41094 12.6476ZM15 18C15 18.3452 14.7202 18.625 14.375 18.625C14.0298 18.625 13.75 18.3452 13.75 18C13.75 17.6548 14.0298 17.375 14.375 17.375C14.7202 17.375 15 17.6548 15 18ZM4.375 6.125V7.375C4.375 10.1364 6.61356 12.375 9.375 12.375H10.625C13.3864 12.375 15.625 10.1364 15.625 7.375V6.125H4.375ZM9.84056 1.79606C9.97162 1.71269 10.1493 1.74561 10.2373 1.86958C10.3254 1.99355 10.2906 2.16163 10.1596 2.24499C10.0322 2.32606 9.94675 2.48547 9.94675 2.66651C9.94675 2.84783 10.0321 3.00699 10.1594 3.08803C10.4484 3.27195 10.625 3.60123 10.625 3.95874C10.625 4.31618 10.4485 4.64548 10.1594 4.82907C10.0283 4.91233 9.85075 4.87926 9.76275 4.75522C9.67475 4.63118 9.70969 4.46312 9.84081 4.37987C9.96788 4.29916 10.0532 4.13988 10.0532 3.95874C10.0532 3.77747 9.96775 3.61804 9.84037 3.53697C9.55131 3.35306 9.375 3.02404 9.375 2.66651C9.375 2.30921 9.55156 1.97996 9.84056 1.79606ZM12.1123 1.86958C12.0243 1.74561 11.8466 1.71269 11.7156 1.79606C11.4266 1.97996 11.25 2.30921 11.25 2.66651C11.25 3.02404 11.4263 3.35306 11.7154 3.53697C11.8428 3.61804 11.9282 3.77747 11.9282 3.95874C11.9282 4.13988 11.8429 4.29916 11.7158 4.37987C11.5847 4.46312 11.5497 4.63118 11.6377 4.75522C11.7257 4.87926 11.9033 4.91233 12.0344 4.82907C12.3235 4.64548 12.5 4.31618 12.5 3.95874C12.5 3.60123 12.3234 3.27195 12.0344 3.08803C11.9071 3.00699 11.8218 2.84783 11.8218 2.66651C11.8218 2.48547 11.9072 2.32606 12.0346 2.24499C12.1656 2.16163 12.2004 1.99355 12.1123 1.86958Z" fill="#333333"/>
</g>
</g>
<defs>
<clipPath id="clip0_365_19195">
<rect width="25" height="24" fill="white" transform="translate(0 0.5)"/>
</clipPath>
<clipPath id="clip1_365_19195">
<rect width="20" height="20" fill="white" transform="translate(0 0.5)"/>
</clipPath>
</defs>
</svg>
