<svg width="27" height="25" viewBox="0 0 27 25" fill="none" xmlns="http://www.w3.org/2000/svg">
<g clip-path="url(#clip0_365_19216)">
<g clip-path="url(#clip1_365_19216)">
<path fill-rule="evenodd" clip-rule="evenodd" d="M9.375 8.447V2.375C9.375 2.02983 9.65481 1.75 10 1.75H10.625C11.3154 1.75 11.875 2.30964 11.875 3V3.625H12.5C13.3164 3.625 14.0109 4.14676 14.2683 4.875H15C15.6904 4.875 16.25 5.43464 16.25 6.125C16.5952 6.125 16.875 6.40483 16.875 6.75C16.875 7.09519 16.5952 7.375 16.25 7.375C16.25 8.06537 15.6904 8.625 15 8.625H14.375V18.625H15.3125C15.4851 18.625 15.625 18.7649 15.625 18.9375C15.625 19.1101 15.4851 19.25 15.3125 19.25H12.8125C12.6399 19.25 12.5 19.1101 12.5 18.9375C12.5 18.7649 12.6399 18.625 12.8125 18.625H13.75V9.25H9.77162L5.35986 18.625H9.375C10.4106 18.625 11.25 17.7856 11.25 16.75C11.25 15.7144 10.4106 14.875 9.375 14.875C9.20244 14.875 9.0625 14.7351 9.0625 14.5625C9.0625 14.3899 9.20244 14.25 9.375 14.25C10.7557 14.25 11.875 15.3693 11.875 16.75C11.875 17.4967 11.5476 18.1669 11.0286 18.625H11.5625C11.7351 18.625 11.875 18.7649 11.875 18.9375C11.875 19.1101 11.7351 19.25 11.5625 19.25H2.8125C2.63991 19.25 2.5 19.1101 2.5 18.9375C2.5 18.7649 2.63991 18.625 2.8125 18.625H4.66912L9.17381 9.05256L3.32287 5.67451C3.17341 5.58821 3.12219 5.39709 3.20849 5.24762C3.29478 5.09816 3.48591 5.04694 3.63537 5.13324L9.375 8.447ZM13.75 8.625V8H15C15.3452 8 15.625 7.72019 15.625 7.375V6.125C15.625 5.77983 15.3452 5.5 15 5.5H13.8263L13.6791 5.08328C13.504 4.58806 13.0341 4.25 12.5 4.25H11.25V3C11.25 2.65482 10.9702 2.375 10.625 2.375H10V8.625H13.75ZM12.5 5.8125C12.5 5.98509 12.6399 6.125 12.8125 6.125C12.9851 6.125 13.125 5.98509 13.125 5.8125C13.125 5.63991 12.9851 5.5 12.8125 5.5C12.6399 5.5 12.5 5.63991 12.5 5.8125Z" fill="#333333"/>
</g>
</g>
<defs>
<clipPath id="clip0_365_19216">
<rect width="27" height="24" fill="white" transform="translate(0 0.5)"/>
</clipPath>
<clipPath id="clip1_365_19216">
<rect width="20" height="20" fill="white" transform="translate(0 0.5)"/>
</clipPath>
</defs>
</svg>
