<svg width="27" height="25" viewBox="0 0 27 25" fill="none" xmlns="http://www.w3.org/2000/svg">
<g clip-path="url(#clip0_365_19237)">
<g clip-path="url(#clip1_365_19237)">
<path fill-rule="evenodd" clip-rule="evenodd" d="M4.375 19.25V18.625H15.625V19.25H16.25V18.625H16.875C17.2202 18.625 17.5 18.3452 17.5 18V4.25C17.5 3.21447 16.6606 2.375 15.625 2.375H4.375C3.33947 2.375 2.5 3.21447 2.5 4.25V18C2.5 18.3452 2.77983 18.625 3.125 18.625H3.75V19.25H4.375ZM16.875 4.25V4.875H3.125V4.25C3.125 3.55964 3.68464 3 4.375 3H15.625C16.3154 3 16.875 3.55964 16.875 4.25ZM16.875 5.5H3.125V18H16.875V5.5ZM5 11.75C5 14.5114 7.23856 16.75 10 16.75C12.7614 16.75 15 14.5114 15 11.75C15 8.98856 12.7614 6.75 10 6.75C7.23856 6.75 5 8.98856 5 11.75ZM5.93606 13.3733C6.58075 14.9858 8.15731 16.125 10 16.125C11.8427 16.125 13.4193 14.9858 14.0639 13.3733C13.7878 13.5334 13.4671 13.625 13.125 13.625C12.4728 13.625 11.8984 13.292 11.5625 12.7868C11.2266 13.292 10.6522 13.625 10 13.625C9.34781 13.625 8.77344 13.292 8.4375 12.7868C8.10156 13.292 7.52719 13.625 6.875 13.625C6.53288 13.625 6.21217 13.5334 5.93606 13.3733ZM6.875 13C6.18464 13 5.625 12.4404 5.625 11.75C5.625 9.33375 7.58375 7.375 10 7.375C12.4163 7.375 14.375 9.33375 14.375 11.75C14.375 12.4404 13.8154 13 13.125 13C12.4346 13 11.875 12.4404 11.875 11.75C11.875 11.5774 11.7351 11.4375 11.5625 11.4375C11.3899 11.4375 11.25 11.5774 11.25 11.75C11.25 12.4404 10.6904 13 10 13C9.30963 13 8.75 12.4404 8.75 11.75C8.75 11.5774 8.61006 11.4375 8.4375 11.4375C8.26494 11.4375 8.125 11.5774 8.125 11.75C8.125 12.4404 7.56537 13 6.875 13ZM14.0625 3.625H15.3125C15.4851 3.625 15.625 3.76491 15.625 3.9375C15.625 4.11009 15.4851 4.25 15.3125 4.25H14.0625C13.8899 4.25 13.75 4.11009 13.75 3.9375C13.75 3.76491 13.8899 3.625 14.0625 3.625ZM5 3.9375C5 3.76491 4.86009 3.625 4.6875 3.625C4.51491 3.625 4.375 3.76491 4.375 3.9375C4.375 4.11009 4.51491 4.25 4.6875 4.25C4.86009 4.25 5 4.11009 5 3.9375Z" fill="#333333"/>
</g>
</g>
<defs>
<clipPath id="clip0_365_19237">
<rect width="27" height="24" fill="white" transform="translate(0 0.5)"/>
</clipPath>
<clipPath id="clip1_365_19237">
<rect width="20" height="20" fill="white" transform="translate(0 0.5)"/>
</clipPath>
</defs>
</svg>
