<svg width="27" height="25" viewBox="0 0 27 25" fill="none" xmlns="http://www.w3.org/2000/svg">
<g clip-path="url(#clip0_365_19244)">
<g clip-path="url(#clip1_365_19244)">
<path fill-rule="evenodd" clip-rule="evenodd" d="M16.25 10.5C16.25 10.8452 15.9702 11.125 15.625 11.125H4.375C4.02982 11.125 3.75 10.8452 3.75 10.5H2.5C1.80964 10.5 1.25 9.94037 1.25 9.25V4.25C1.25 3.55964 1.80964 3 2.5 3H17.5C18.1904 3 18.75 3.55964 18.75 4.25V9.25C18.75 9.94037 18.1904 10.5 17.5 10.5H16.25ZM16.25 9.875H17.5C17.8452 9.875 18.125 9.59519 18.125 9.25V4.25C18.125 3.90482 17.8452 3.625 17.5 3.625H2.5C2.15482 3.625 1.875 3.90482 1.875 4.25V9.25C1.875 9.59519 2.15482 9.875 2.5 9.875H3.75V8.625C3.75 7.93463 4.30964 7.375 5 7.375H15C15.6904 7.375 16.25 7.93463 16.25 8.625V9.875ZM4.375 8.625C4.375 8.27981 4.65482 8 5 8H15C15.3452 8 15.625 8.27981 15.625 8.625V10.5H4.375V8.625ZM6.5625 13C6.73506 13 6.875 13.1399 6.875 13.3125V17.6875C6.875 17.8601 6.73506 18 6.5625 18C6.38994 18 6.25 17.8601 6.25 17.6875V13.3125C6.25 13.1399 6.38994 13 6.5625 13ZM10.3125 13.3125C10.3125 13.1399 10.1726 13 10 13C9.82744 13 9.6875 13.1399 9.6875 13.3125V17.6875C9.6875 17.8601 9.82744 18 10 18C10.1726 18 10.3125 17.8601 10.3125 17.6875V13.3125ZM13.4375 13C13.6101 13 13.75 13.1399 13.75 13.3125V17.6875C13.75 17.8601 13.6101 18 13.4375 18C13.2649 18 13.125 17.8601 13.125 17.6875V13.3125C13.125 13.1399 13.2649 13 13.4375 13ZM16.5625 5.5H15.3125C15.1399 5.5 15 5.63991 15 5.8125C15 5.98509 15.1399 6.125 15.3125 6.125H16.5625C16.7351 6.125 16.875 5.98509 16.875 5.8125C16.875 5.63991 16.7351 5.5 16.5625 5.5Z" fill="#333333"/>
</g>
</g>
<defs>
<clipPath id="clip0_365_19244">
<rect width="27" height="24" fill="white" transform="translate(0 0.5)"/>
</clipPath>
<clipPath id="clip1_365_19244">
<rect width="20" height="20" fill="white" transform="translate(0 0.5)"/>
</clipPath>
</defs>
</svg>
