<svg width="26" height="25" viewBox="0 0 26 25" fill="none" xmlns="http://www.w3.org/2000/svg">
<g clip-path="url(#clip0_365_19286)">
<g clip-path="url(#clip1_365_19286)">
<path fill-rule="evenodd" clip-rule="evenodd" d="M6.5625 1.75H13.4375C13.6101 1.75 13.75 1.88991 13.75 2.0625C13.75 2.23509 13.6101 2.375 13.4375 2.375H6.5625C6.38994 2.375 6.25 2.23509 6.25 2.0625C6.25 1.88991 6.38994 1.75 6.5625 1.75ZM4.375 3H15.625C16.6606 3 17.5 3.83947 17.5 4.875V16.125C17.5 17.1606 16.6606 18 15.625 18H4.375C3.33947 18 2.5 17.1606 2.5 16.125V4.875C2.5 3.83947 3.33947 3 4.375 3ZM9.6875 3.625H4.375C3.68464 3.625 3.125 4.18464 3.125 4.875V16.125C3.125 16.8154 3.68464 17.375 4.375 17.375H9.6875V3.625ZM10.3125 17.375V3.625H15.625C16.3154 3.625 16.875 4.18464 16.875 4.875V16.125C16.875 16.8154 16.3154 17.375 15.625 17.375H10.3125ZM13.4375 18.625H6.5625C6.38994 18.625 6.25 18.7649 6.25 18.9375C6.25 19.1101 6.38994 19.25 6.5625 19.25H13.4375C13.6101 19.25 13.75 19.1101 13.75 18.9375C13.75 18.7649 13.6101 18.625 13.4375 18.625ZM5.60604 9.58144L6.5625 10.5379L7.51894 9.58144L7.96875 10.0312L7.03125 10.9688C6.77238 11.2276 6.35262 11.2276 6.09375 10.9688L5.15625 10.0312L5.60604 9.58144ZM12.0312 10.7131L12.4811 11.1629L13.4375 10.2064L14.3939 11.1629L14.8438 10.7131L13.9062 9.77563C13.6474 9.51675 13.2276 9.51675 12.9688 9.77563L12.0312 10.7131Z" fill="#333333"/>
</g>
</g>
<defs>
<clipPath id="clip0_365_19286">
<rect width="26" height="24" fill="white" transform="translate(0 0.5)"/>
</clipPath>
<clipPath id="clip1_365_19286">
<rect width="20" height="20" fill="white" transform="translate(0 0.5)"/>
</clipPath>
</defs>
</svg>
