<svg width="26" height="25" viewBox="0 0 26 25" fill="none" xmlns="http://www.w3.org/2000/svg">
<g clip-path="url(#clip0_365_19258)">
<g clip-path="url(#clip1_365_19258)">
<path fill-rule="evenodd" clip-rule="evenodd" d="M15 18V9.875H15.625C16.6606 9.875 17.5 9.03556 17.5 8C17.5 6.96444 16.6606 6.125 15.625 6.125H10V5.5C11.0356 5.5 11.875 4.66053 11.875 3.625C11.875 2.58947 11.0356 1.75 10 1.75C8.96444 1.75 8.125 2.58947 8.125 3.625C8.125 3.79759 8.26494 3.9375 8.4375 3.9375C8.61006 3.9375 8.75 3.79759 8.75 3.625C8.75 2.93464 9.30963 2.375 10 2.375C10.6904 2.375 11.25 2.93464 11.25 3.625C11.25 4.31536 10.6904 4.875 10 4.875C9.65481 4.875 9.375 5.15482 9.375 5.5V6.125H4.375C3.33947 6.125 2.5 6.96444 2.5 8C2.5 9.03556 3.33947 9.875 4.375 9.875H5V18C5 18.6904 5.55964 19.25 6.25 19.25H13.75C14.4404 19.25 15 18.6904 15 18ZM15.625 9.25H15C15 8.55963 14.4404 8 13.75 8H6.25C5.55964 8 5 8.55963 5 9.25H4.375C3.68464 9.25 3.125 8.69037 3.125 8C3.125 7.30963 3.68464 6.75 4.375 6.75H15.625C16.3154 6.75 16.875 7.30963 16.875 8C16.875 8.69037 16.3154 9.25 15.625 9.25ZM14.375 16.75V9.25C14.375 8.90481 14.0952 8.625 13.75 8.625H6.25C5.90482 8.625 5.625 8.90481 5.625 9.25V16.75H14.375ZM5.625 18V17.375H14.375V18C14.375 18.3452 14.0952 18.625 13.75 18.625H6.25C5.90482 18.625 5.625 18.3452 5.625 18Z" fill="#333333"/>
</g>
</g>
<defs>
<clipPath id="clip0_365_19258">
<rect width="26" height="24" fill="white" transform="translate(0 0.5)"/>
</clipPath>
<clipPath id="clip1_365_19258">
<rect width="20" height="20" fill="white" transform="translate(0 0.5)"/>
</clipPath>
</defs>
</svg>
