<svg width="32" height="32" viewBox="0 0 32 32" fill="none" xmlns="http://www.w3.org/2000/svg">
<g id="icn_facil_microwave">
<path id="Vector" fill-rule="evenodd" clip-rule="evenodd" d="M6 27V26H26V27H27V26C28.6569 26 30 24.6569 30 23V9C30 7.34315 28.6569 6 27 6H5C3.34315 6 2 7.34315 2 9V23C2 24.6569 3.34315 26 5 26V27H6ZM5 25C3.89543 25 3 24.1046 3 23V9C3 7.89543 3.89543 7 5 7H27C28.1046 7 29 7.89543 29 9V23C29 24.1046 28.1046 25 27 25H5ZM6 9H21C22.1046 9 23 9.89543 23 11V21C23 22.1046 22.1046 23 21 23H6C4.89543 23 4 22.1046 4 21V11C4 9.89543 4.89543 9 6 9ZM5.05263 20.9975V11.0025C5.05263 10.4488 5.49498 10 6.05307 10H20.9469C21.4995 10 21.9474 10.4558 21.9474 11.0025V20.9975C21.9474 21.5512 21.505 22 20.9469 22H6.05307C5.50055 22 5.05263 21.5442 5.05263 20.9975ZM7.46429 20H19.5357C19.7921 20 20 20.2239 20 20.5C20 20.7761 19.7921 21 19.5357 21H7.46429C7.20787 21 7 20.7761 7 20.5C7 20.2239 7.20787 20 7.46429 20ZM12 11H11V12H12V11ZM13 11H14V12H13V11ZM16 11H15V12H16V11ZM24.5 14H27.5C27.7761 14 28 14.2239 28 14.5C28 14.7761 27.7761 15 27.5 15H24.5C24.2239 15 24 14.7761 24 14.5C24 14.2239 24.2239 14 24.5 14ZM27.5 16H24.5C24.2239 16 24 16.2239 24 16.5C24 16.7761 24.2239 17 24.5 17H27.5C27.7761 17 28 16.7761 28 16.5C28 16.2239 27.7761 16 27.5 16ZM26 22C24.8954 22 24 21.1046 24 20C24 18.8954 24.8954 18 26 18C27.1046 18 28 18.8954 28 20C28 21.1046 27.1046 22 26 22ZM27 20C27 20.5523 26.5523 21 26 21C25.4477 21 25 20.5523 25 20C25 19.4477 25.4477 19 26 19C26.5523 19 27 19.4477 27 20Z" fill="#333333"/>
</g>
</svg>
