<svg width="25" height="25" viewBox="0 0 25 25" fill="none" xmlns="http://www.w3.org/2000/svg">
<g clip-path="url(#clip0_365_19230)">
<g clip-path="url(#clip1_365_19230)">
<path fill-rule="evenodd" clip-rule="evenodd" d="M16.875 18.625H11.25V19.25H10.625V18.625H10V19.25H9.375V18.625H3.125V19.25H2.5V18.625C2.15483 18.625 1.875 18.3452 1.875 18V4.25C1.875 3.21447 2.71447 2.375 3.75 2.375H8.75C9.78556 2.375 10.625 3.21447 10.625 4.25V4.875H11.875V2.6875C11.875 2.51491 12.0149 2.375 12.1875 2.375C12.3601 2.375 12.5 2.51491 12.5 2.6875V4.875H15.625V2.6875C15.625 2.51491 15.7649 2.375 15.9375 2.375C16.1101 2.375 16.25 2.51491 16.25 2.6875V4.875H17.8125C17.9851 4.875 18.125 5.01491 18.125 5.1875C18.125 5.36009 17.9851 5.5 17.8125 5.5H10.625V11.2922C10.8089 11.1859 11.0223 11.125 11.25 11.125H16.875C17.5654 11.125 18.125 11.6846 18.125 12.375V18C18.125 18.3452 17.8452 18.625 17.5 18.625V19.25H16.875V18.625ZM10 18V8.625H2.5V18H10ZM10 4.25V8H2.5V4.25C2.5 3.55964 3.05964 3 3.75 3H8.75C9.44037 3 10 3.55964 10 4.25ZM4.0625 9.25C4.23509 9.25 4.375 9.38994 4.375 9.5625C4.375 9.73506 4.23509 9.875 4.0625 9.875H3.4375C3.26491 9.875 3.125 9.73506 3.125 9.5625C3.125 9.38994 3.26491 9.25 3.4375 9.25H4.0625ZM4.375 7.0625C4.375 6.88994 4.23509 6.75 4.0625 6.75H3.4375C3.26491 6.75 3.125 6.88994 3.125 7.0625C3.125 7.23506 3.26491 7.375 3.4375 7.375H4.0625C4.23509 7.375 4.375 7.23506 4.375 7.0625ZM17.5 13V12.375C17.5 12.0298 17.2202 11.75 16.875 11.75H11.25C10.9048 11.75 10.625 12.0298 10.625 12.375V13H17.5ZM10.625 13.625H17.5V18H10.625V13.625ZM11.875 14.25H16.25C16.5952 14.25 16.875 14.5298 16.875 14.875V16.75C16.875 17.0952 16.5952 17.375 16.25 17.375H11.875C11.5298 17.375 11.25 17.0952 11.25 16.75V14.875C11.25 14.5298 11.5298 14.25 11.875 14.25ZM11.875 16.75V14.875H16.25V16.75H11.875ZM13.4375 9.875C13.6101 9.875 13.75 10.0149 13.75 10.1875C13.75 10.3601 13.6101 10.5 13.4375 10.5H11.5625C11.3899 10.5 11.25 10.3601 11.25 10.1875C11.25 10.0149 11.3899 9.875 11.5625 9.875H13.4375ZM16.875 10.1875C16.875 10.0149 16.7351 9.875 16.5625 9.875H14.6875C14.5149 9.875 14.375 10.0149 14.375 10.1875C14.375 10.3601 14.5149 10.5 14.6875 10.5H16.5625C16.7351 10.5 16.875 10.3601 16.875 10.1875Z" fill="#333333"/>
</g>
</g>
<defs>
<clipPath id="clip0_365_19230">
<rect width="25" height="24" fill="white" transform="translate(0 0.5)"/>
</clipPath>
<clipPath id="clip1_365_19230">
<rect width="20" height="20" fill="white" transform="translate(0 0.5)"/>
</clipPath>
</defs>
</svg>
