<svg width="12" height="12" viewBox="0 0 12 12" fill="none" xmlns="http://www.w3.org/2000/svg">
<path d="M8.53752 7.26L9.04932 9.606C9.08532 9.9072 9.00792 10.1436 8.81772 10.314C8.55732 10.548 8.24292 10.5252 8.04132 10.44C7.91592 10.3716 7.23552 9.9522 5.99892 9.183C4.76232 9.9522 4.08132 10.3716 3.95652 10.4406C3.75492 10.5246 3.44052 10.5486 3.17952 10.314C2.98932 10.1436 2.91252 9.9072 2.94792 9.606L3.45972 7.26L3.45732 7.2582L3.45792 7.2564C2.36772 6.2658 1.77432 5.7204 1.67892 5.622C1.53072 5.4618 1.43712 5.1504 1.54992 4.8366C1.66272 4.5228 1.95252 4.389 2.12232 4.3686C2.23632 4.356 3.00552 4.281 4.43112 4.1448H4.42812C5.00712 2.73 5.32212 1.9722 5.37372 1.8702C5.45052 1.7172 5.69772 1.5 5.99892 1.5C6.30012 1.5 6.51732 1.6992 6.60972 1.8438C6.66972 1.9626 6.99012 2.73 7.56972 4.1448C8.99472 4.281 9.76452 4.356 9.87792 4.3692C10.0477 4.389 10.3375 4.5228 10.4503 4.8372C10.5631 5.1504 10.4695 5.4612 10.3213 5.622C10.2253 5.721 9.63132 6.2664 8.53992 7.2582L8.53752 7.26Z" fill="#333333"/>
</svg>
