<svg width="16" height="16" viewBox="0 0 16 16" fill="none" xmlns="http://www.w3.org/2000/svg">
<path fill-rule="evenodd" clip-rule="evenodd" d="M6.85 14.1C8.46456 14.0994 10.0247 13.5164 11.244 12.458L11.217 12.492L14.617 16L16 14.574L12.53 10.994C13.2973 9.82202 13.704 8.45079 13.7 7.05C13.7 3.156 10.633 0 6.85 0C3.067 0 0 3.156 0 7.05C0 10.944 3.067 14.1 6.85 14.1ZM6.85 12.11C9.545 12.11 11.73 9.847 11.73 7.055C11.73 4.263 9.545 2 6.85 2C4.155 2 1.97 4.263 1.97 7.055C1.97 9.847 4.155 12.11 6.85 12.11Z" fill="#999999"/>
</svg>
