<svg width="44" height="48" viewBox="0 0 44 48" fill="none" xmlns="http://www.w3.org/2000/svg">
<path fill-rule="evenodd" clip-rule="evenodd" d="M26 23.001C26.394 23.0011 26.7842 22.9237 27.1483 22.773C27.5124 22.6223 27.8433 22.4014 28.122 22.1229C28.4007 21.8444 28.6218 21.5137 28.7727 21.1497C28.9236 20.7857 29.0014 20.3955 29.0015 20.0015C29.0016 19.6075 28.9242 19.2173 28.7735 18.8532C28.6228 18.4891 28.4019 18.1582 28.1234 17.8795C27.8449 17.6008 27.5142 17.3797 27.1502 17.2288C26.7862 17.0779 26.396 17.0001 26.002 17C25.2062 16.9997 24.4429 17.3156 23.88 17.8781C23.3171 18.4406 23.0008 19.2037 23.0005 19.9995C23.0002 20.7953 23.3161 21.5586 23.8786 22.1215C24.4411 22.6844 25.2042 23.0007 26 23.001ZM19.003 29.026C18.996 25.513 23.483 24.001 26 24.001C28.558 24.001 33.007 25.564 32.995 28.994C32.995 29.052 32.997 29.098 32.998 29.14L33 29.249C33.004 30.309 32.147 30.995 31.238 30.998C30.636 31.002 26.006 31 26.006 31C26.006 31 22.136 31.009 20.8 30.999C19.465 30.989 19.004 29.869 19 29.307L19.002 29.119L19.003 29.026Z" fill="#999999"/>
</svg>
