<svg width="16" height="17" viewBox="0 0 16 17" fill="none" xmlns="http://www.w3.org/2000/svg">
<path d="M10.0644 5.10714C9.35626 4.64652 8.51482 4.435 7.67305 4.506C6.83127 4.57699 6.03715 4.92646 5.41617 5.49917C4.79518 6.07188 4.38273 6.83519 4.244 7.66849C4.10527 8.50178 4.24816 9.35755 4.65009 10.1006C5.05202 10.8436 5.69008 11.4315 6.46345 11.7714C7.23682 12.1113 8.10139 12.1838 8.92057 11.9775C9.73975 11.7711 10.4668 11.2977 10.9869 10.632C11.507 9.96631 11.7904 9.1463 11.7924 8.30154H13.6004C13.6003 9.57635 13.1653 10.813 12.3672 11.8071C11.5691 12.8011 10.4557 13.4931 9.21105 13.7687C7.96638 14.0443 6.66494 13.887 5.5218 13.3228C4.37866 12.7585 3.46224 11.8212 2.924 10.6655C2.38577 9.50993 2.25793 8.20526 2.56161 6.96715C2.86529 5.72904 3.58232 4.6316 4.59419 3.8562C5.60607 3.0808 6.85222 2.67384 8.1267 2.7026C9.40119 2.73135 10.6277 3.19409 11.6036 4.01434L11.6068 2.70154H13.2004V5.90154C13.2004 6.11371 13.1161 6.31719 12.9661 6.46722C12.8161 6.61725 12.6126 6.70154 12.4004 6.70154H9.2004V5.11034L10.0644 5.10714Z" fill="#D6D6D6"/>
</svg>
