<svg width="14" height="16" viewBox="0 0 14 16" fill="none" xmlns="http://www.w3.org/2000/svg">
<path fill-rule="evenodd" clip-rule="evenodd" d="M10 1.5V2.4H4V1.5C4 1.23478 3.89464 0.98043 3.70711 0.792893C3.51957 0.605357 3.26522 0.5 3 0.5C2.73478 0.5 2.48043 0.605357 2.29289 0.792893C2.10536 0.98043 2 1.23478 2 1.5V2.57C1.41493 2.77701 0.908421 3.16032 0.55024 3.66715C0.192059 4.17397 -0.000178928 4.77938 1.24966e-07 5.4V12.5C1.24966e-07 13.2956 0.316071 14.0587 0.87868 14.6213C1.44129 15.1839 2.20435 15.5 3 15.5H11C11.7956 15.5 12.5587 15.1839 13.1213 14.6213C13.6839 14.0587 14 13.2956 14 12.5V5.4C14.0002 4.77938 13.8079 4.17397 13.4498 3.66715C13.0916 3.16032 12.5851 2.77701 12 2.57V1.5C12 1.23478 11.8946 0.98043 11.7071 0.792893C11.5196 0.605357 11.2652 0.5 11 0.5C10.7348 0.5 10.4804 0.605357 10.2929 0.792893C10.1054 0.98043 10 1.23478 10 1.5ZM2 11.6V7H12V11.6C12 12.1304 11.7893 12.6391 11.4142 13.0142C11.0391 13.3893 10.5304 13.6 10 13.6H4C3.46957 13.6 2.96086 13.3893 2.58579 13.0142C2.21071 12.6391 2 12.1304 2 11.6Z" fill="#999999"/>
</svg>
