<svg width="12" height="13" viewBox="0 0 12 13" fill="none" xmlns="http://www.w3.org/2000/svg">
<path d="M8.53752 7.76L9.04932 10.106C9.08532 10.4072 9.00792 10.6436 8.81772 10.814C8.55732 11.048 8.24292 11.0252 8.04132 10.94C7.91592 10.8716 7.23552 10.4522 5.99892 9.683C4.76232 10.4522 4.08132 10.8716 3.95652 10.9406C3.75492 11.0246 3.44052 11.0486 3.17952 10.814C2.98932 10.6436 2.91252 10.4072 2.94792 10.106L3.45972 7.76L3.45732 7.7582L3.45792 7.7564C2.36772 6.7658 1.77432 6.2204 1.67892 6.122C1.53072 5.9618 1.43712 5.6504 1.54992 5.3366C1.66272 5.0228 1.95252 4.889 2.12232 4.8686C2.23632 4.856 3.00552 4.781 4.43112 4.6448H4.42812C5.00712 3.23 5.32212 2.4722 5.37372 2.3702C5.45052 2.2172 5.69772 2 5.99892 2C6.30012 2 6.51732 2.1992 6.60972 2.3438C6.66972 2.4626 6.99012 3.23 7.56972 4.6448C8.99472 4.781 9.76452 4.856 9.87792 4.8692C10.0477 4.889 10.3375 5.0228 10.4503 5.3372C10.5631 5.6504 10.4695 5.9612 10.3213 6.122C10.2253 6.221 9.63132 6.7664 8.53992 7.7582L8.53752 7.76Z" fill="#333333"/>
</svg>
