<svg width="18" height="19" viewBox="0 0 18 19" fill="none" xmlns="http://www.w3.org/2000/svg">
<path d="M13.4882 11.915L14.4691 16.4115C14.5381 16.9888 14.3898 17.4419 14.0253 17.7685C13.5262 18.217 12.9236 18.1733 12.5372 18.01C12.2969 17.8789 10.9928 17.0751 8.6227 15.6008C6.25261 17.0751 4.9474 17.8789 4.70821 18.0112C4.32182 18.1722 3.71923 18.2182 3.219 17.7685C2.85446 17.4419 2.70726 16.9888 2.77511 16.4115L3.75603 11.915L3.75143 11.9116L3.75258 11.9081C1.66309 10.0095 0.525771 8.96411 0.342926 8.77551C0.0588838 8.46846 -0.120512 7.87161 0.0956826 7.27016C0.311877 6.66871 0.867312 6.41226 1.19275 6.37316C1.41125 6.34901 2.88551 6.20526 5.61783 5.94421H5.61208C6.7218 3.2325 7.32554 1.78005 7.42443 1.58455C7.57163 1.2913 8.04542 0.875 8.6227 0.875C9.19998 0.875 9.61627 1.2568 9.79337 1.53395C9.90837 1.76165 10.5224 3.2325 11.6333 5.94421C14.3645 6.20526 15.8399 6.34901 16.0572 6.37431C16.3827 6.41226 16.9381 6.66871 17.1543 7.27131C17.3705 7.87161 17.1911 8.46731 16.9071 8.77551C16.7231 8.96526 15.5846 10.0106 13.4928 11.9116L13.4882 11.915Z" fill="#FFAD0A"/>
</svg>
