<svg width="18" height="19" viewBox="0 0 18 19" fill="none" xmlns="http://www.w3.org/2000/svg">
<path d="M13.7382 11.915L14.7191 16.4115C14.7881 16.9888 14.6398 17.4419 14.2753 17.7685C13.7762 18.217 13.1736 18.1733 12.7872 18.01C12.5469 17.8789 11.2428 17.0751 8.8727 15.6008C6.50261 17.0751 5.1974 17.8789 4.95821 18.0112C4.57182 18.1722 3.96923 18.2182 3.469 17.7685C3.10446 17.4419 2.95726 16.9888 3.02511 16.4115L4.00603 11.915L4.00143 11.9116L4.00258 11.9081C1.91309 10.0095 0.775771 8.96411 0.592926 8.77551C0.308884 8.46846 0.129488 7.87161 0.345683 7.27016C0.561877 6.66871 1.11731 6.41226 1.44275 6.37316C1.66125 6.34901 3.13551 6.20526 5.86783 5.94421H5.86208C6.9718 3.2325 7.57554 1.78005 7.67443 1.58455C7.82163 1.2913 8.29542 0.875 8.8727 0.875C9.44998 0.875 9.86627 1.2568 10.0434 1.53395C10.1584 1.76165 10.7724 3.2325 11.8833 5.94421C14.6145 6.20526 16.0899 6.34901 16.3072 6.37431C16.6327 6.41226 17.1881 6.66871 17.4043 7.27131C17.6205 7.87161 17.4411 8.46731 17.1571 8.77551C16.9731 8.96526 15.8346 10.0106 13.7428 11.9116L13.7382 11.915Z" fill="#FFAD0A"/>
</svg>
