<svg width="23" height="16" viewBox="0 0 23 16" fill="none" xmlns="http://www.w3.org/2000/svg">
<path d="M6.84541 0.252597C6.54612 0.0898812 6.15959 0 5.75914 0C5.35869 0 4.97217 0.0898812 4.67287 0.252597L0.32983 2.61382C0.180811 2.69471 0.0755959 2.80143 0.028182 2.91978C-0.0192318 3.03814 -0.00659602 3.16252 0.0644076 3.27638C0.135411 3.39024 0.261416 3.48817 0.42566 3.55716C0.589903 3.62614 0.784597 3.66291 0.98384 3.66255H4.12514V15.9999H7.39519V3.66255H10.5365C10.7357 3.66291 10.9304 3.62614 11.0947 3.55716C11.2589 3.48817 11.3849 3.39024 11.4559 3.27638C11.5269 3.16252 11.5396 3.03814 11.4921 2.91978C11.4447 2.80143 11.3395 2.69471 11.1905 2.61382L6.84541 0.252597ZM16.1569 15.7474C16.4562 15.9101 16.8427 16 17.2432 16C17.6436 16 18.0301 15.9101 18.3294 15.7474L22.6725 13.3862C22.8207 13.3052 22.9253 13.1986 22.9722 13.0804C23.0192 12.9623 23.0064 12.8382 22.9355 12.7246C22.8645 12.6111 22.7389 12.5133 22.5751 12.4444C22.4114 12.3755 22.2172 12.3386 22.0185 12.3387H18.8772V0.000100433H15.6071V12.3374H12.4658C12.2672 12.3376 12.0734 12.3747 11.9099 12.4437C11.7465 12.5127 11.6212 12.6105 11.5505 12.724C11.4798 12.8375 11.4672 12.9615 11.5142 13.0795C11.5612 13.1975 11.6657 13.304 11.8138 13.3849L16.1569 15.7462V15.7474Z" fill="#333333"/>
</svg>
