<svg width="18" height="19" viewBox="0 0 18 19" fill="none" xmlns="http://www.w3.org/2000/svg">
<path d="M14.2382 11.915L15.2191 16.4115C15.2881 16.9888 15.1398 17.4419 14.7753 17.7685C14.2762 18.217 13.6736 18.1733 13.2872 18.01C13.0469 17.8789 11.7428 17.0751 9.3727 15.6008C7.00261 17.0751 5.6974 17.8789 5.45821 18.0112C5.07182 18.1722 4.46923 18.2182 3.969 17.7685C3.60446 17.4419 3.45726 16.9888 3.52511 16.4115L4.50603 11.915L4.50143 11.9116L4.50258 11.9081C2.41309 10.0095 1.27577 8.96411 1.09293 8.77551C0.808884 8.46846 0.629488 7.87161 0.845683 7.27016C1.06188 6.66871 1.61731 6.41226 1.94275 6.37316C2.16125 6.34901 3.63551 6.20526 6.36783 5.94421H6.36208C7.4718 3.2325 8.07554 1.78005 8.17443 1.58455C8.32163 1.2913 8.79542 0.875 9.3727 0.875C9.94998 0.875 10.3663 1.2568 10.5434 1.53395C10.6584 1.76165 11.2724 3.2325 12.3833 5.94421C15.1145 6.20526 16.5899 6.34901 16.8072 6.37431C17.1327 6.41226 17.6881 6.66871 17.9043 7.27131C18.1205 7.87161 17.9411 8.46731 17.6571 8.77551C17.4731 8.96526 16.3346 10.0106 14.2428 11.9116L14.2382 11.915Z" fill="#FFAD0A"/>
</svg>
