<svg width="18" height="19" viewBox="0 0 18 19" fill="none" xmlns="http://www.w3.org/2000/svg">
<path d="M13.9882 11.915L14.9691 16.4115C15.0381 16.9888 14.8898 17.4419 14.5253 17.7685C14.0262 18.217 13.4236 18.1733 13.0372 18.01C12.7969 17.8789 11.4928 17.0751 9.1227 15.6008C6.75261 17.0751 5.4474 17.8789 5.20821 18.0112C4.82182 18.1722 4.21923 18.2182 3.719 17.7685C3.35446 17.4419 3.20726 16.9888 3.27511 16.4115L4.25603 11.915L4.25143 11.9116L4.25258 11.9081C2.16309 10.0095 1.02577 8.96411 0.842926 8.77551C0.558884 8.46846 0.379488 7.87161 0.595683 7.27016C0.811877 6.66871 1.36731 6.41226 1.69275 6.37316C1.91125 6.34901 3.38551 6.20526 6.11783 5.94421H6.11208C7.2218 3.2325 7.82554 1.78005 7.92443 1.58455C8.07163 1.2913 8.54542 0.875 9.1227 0.875C9.69998 0.875 10.1163 1.2568 10.2934 1.53395C10.4084 1.76165 11.0224 3.2325 12.1333 5.94421C14.8645 6.20526 16.3399 6.34901 16.5572 6.37431C16.8827 6.41226 17.4381 6.66871 17.6543 7.27131C17.8705 7.87161 17.6911 8.46731 17.4071 8.77551C17.2231 8.96526 16.0846 10.0106 13.9928 11.9116L13.9882 11.915Z" fill="#FFAD0A"/>
</svg>
