<svg width="21" height="20" viewBox="0 0 21 20" fill="none" xmlns="http://www.w3.org/2000/svg">
<path d="M13.3601 17.173C13.8928 17.4569 14.5033 17.5597 15.0996 17.4658C15.6958 17.372 16.2453 17.0867 16.6651 16.653C16.7981 16.515 16.7231 16.594 17.2631 16.049C17.7731 15.539 18.0491 14.391 17.2381 13.535C16.8371 13.113 16.6051 12.895 16.0861 12.373C15.5371 11.794 14.2061 11.351 13.1301 12.345C12.5871 12.895 11.7801 12.887 11.2461 12.476C10.7571 12.113 9.9131 11.451 9.2631 10.772C8.70166 10.1991 8.18826 9.58104 7.7281 8.92402C7.4561 8.49402 7.2401 7.82802 7.9171 7.10002C8.4071 6.64402 8.9541 5.26202 7.8801 4.15802C7.5901 3.87902 7.2841 3.56002 6.7601 3.03602C6.3211 2.56602 5.1341 2.11302 4.1491 3.03602C3.8321 3.36402 3.4251 3.67802 3.1691 4.13602C2.8671 4.55902 2.4701 5.67702 3.0371 6.78602C3.7461 8.09402 4.8321 10.24 7.4911 12.913C9.0201 14.493 11.5611 16.29 13.3611 17.173H13.3601Z" fill="#C2C2C2"/>
</svg>
